<svg id="svg" version="1.1" xmlns="http://www.w3.org/2000/svg" xmlns:xlink="http://www.w3.org/1999/xlink" width="400" height="400" viewBox="0, 0, 400,400"><g id="svgg"><path id="path0" d="M0.000 200.000 L 0.000 400.000 200.000 400.000 L 400.000 400.000 400.000 200.000 L 400.000 0.000 200.000 0.000 L 0.000 0.000 0.000 200.000 M239.906 103.762 C 240.023 118.446,240.088 118.084,237.284 118.541 C 236.468 118.674,235.080 118.949,234.200 119.151 C 233.320 119.354,231.610 119.736,230.400 120.000 C 229.190 120.264,227.570 120.624,226.800 120.800 C 226.030 120.976,224.500 121.319,223.400 121.563 C 222.300 121.807,220.929 122.112,220.353 122.240 C 219.491 122.432,219.263 122.307,219.070 121.536 C 218.733 120.194,218.729 91.004,219.066 90.667 C 219.220 90.513,223.949 90.435,229.573 90.493 L 239.800 90.600 239.906 103.762 M212.704 123.415 L 212.808 142.230 207.904 147.043 C 200.539 154.271,193.398 160.400,192.340 160.400 C 191.752 160.400,191.911 104.903,192.500 104.661 C 192.775 104.548,197.410 104.488,202.800 104.528 L 212.600 104.600 212.704 123.415 M239.998 125.300 C 239.996 132.394,239.545 139.200,239.078 139.200 C 238.857 139.200,237.698 138.274,236.502 137.142 L 234.326 135.085 229.063 140.294 C 220.349 148.920,217.294 151.706,208.800 158.774 C 204.013 162.758,201.119 165.006,193.800 170.427 C 183.103 178.349,168.130 186.225,160.400 187.995 C 145.888 191.318,136.546 188.537,131.456 179.378 L 130.357 177.400 132.879 179.881 C 142.295 189.148,159.204 186.138,181.625 171.202 C 186.335 168.065,192.833 163.326,194.614 161.730 C 195.062 161.328,196.232 160.375,197.214 159.612 C 203.869 154.438,218.077 140.225,222.818 134.000 C 223.572 133.010,224.398 131.980,224.655 131.711 C 224.912 131.441,225.531 130.559,226.031 129.749 L 226.941 128.278 224.863 126.439 C 222.019 123.923,221.595 124.194,231.800 122.000 C 232.680 121.811,234.210 121.469,235.200 121.241 C 240.474 120.025,240.000 119.624,239.998 125.300 M186.000 145.202 L 186.000 165.604 183.312 167.578 C 180.439 169.688,171.953 174.836,168.513 176.556 C 164.865 178.381,165.200 180.947,165.200 151.200 L 165.200 124.800 175.600 124.800 L 186.000 124.800 186.000 145.202 M222.139 127.088 C 224.001 128.729,223.979 129.017,221.766 131.960 C 219.174 135.409,218.811 135.120,218.811 129.600 C 218.811 124.320,218.912 124.244,222.139 127.088 M235.920 139.680 C 236.734 140.494,236.478 140.725,234.198 141.236 C 231.588 141.820,231.128 141.554,232.401 140.198 C 233.405 139.130,235.118 138.878,235.920 139.680 M257.045 145.700 C 256.736 153.499,255.953 163.200,255.631 163.199 C 255.504 163.198,254.230 161.939,252.800 160.400 C 249.768 157.137,249.873 157.165,247.800 159.110 C 246.920 159.935,245.210 161.416,244.000 162.400 C 242.790 163.384,241.710 164.294,241.600 164.423 C 240.548 165.653,224.258 176.918,220.300 179.153 C 218.093 180.399,216.422 181.357,214.400 182.536 C 212.668 183.546,199.442 190.126,197.800 190.795 C 197.360 190.974,196.185 191.480,195.189 191.920 C 189.235 194.551,179.382 197.333,170.600 198.862 C 166.830 199.519,156.003 199.494,153.200 198.821 C 147.358 197.420,144.366 196.283,140.430 193.970 C 136.284 191.533,130.873 185.709,128.421 181.042 C 127.013 178.363,127.020 177.791,128.437 179.666 C 131.734 184.026,133.344 185.551,137.400 188.153 C 143.914 192.333,153.088 194.207,162.275 193.236 C 167.492 192.684,173.058 191.645,177.200 190.449 C 177.970 190.227,179.230 189.873,180.000 189.662 C 181.723 189.190,186.972 187.319,188.600 186.598 C 189.260 186.305,190.610 185.752,191.600 185.369 C 194.181 184.370,204.834 178.887,208.600 176.619 C 212.569 174.228,217.333 171.157,217.600 170.817 C 217.710 170.676,218.430 170.129,219.200 169.600 C 226.883 164.324,240.892 150.698,240.777 148.615 C 240.764 148.387,239.594 147.222,238.177 146.027 C 236.760 144.831,235.600 143.743,235.600 143.609 C 235.600 143.329,239.282 142.536,246.800 141.198 C 249.930 140.640,252.447 140.140,254.600 139.648 C 257.516 138.982,257.329 138.519,257.045 145.700 M234.241 145.449 C 236.257 147.279,237.600 148.809,237.600 149.277 C 237.600 150.736,222.020 165.505,219.614 166.326 C 218.978 166.543,218.729 163.909,218.867 158.413 L 219.000 153.103 224.600 147.756 C 231.216 141.438,230.114 141.702,234.241 145.449 M212.800 165.308 L 212.800 171.416 209.906 173.208 C 208.314 174.194,206.649 175.197,206.206 175.438 C 205.762 175.678,204.500 176.407,203.400 177.058 C 199.955 179.097,193.297 182.400,192.634 182.400 C 192.097 182.400,192.003 181.801,192.018 178.500 L 192.037 174.600 198.118 170.094 C 204.144 165.629,205.243 164.767,209.568 161.116 C 212.856 158.340,212.800 158.267,212.800 165.308 M239.904 190.900 L 239.800 212.200 229.628 212.307 C 221.757 212.390,219.383 212.299,219.134 211.907 C 218.779 211.348,218.680 184.680,219.028 183.400 C 219.211 182.729,222.724 180.000,223.406 180.000 C 223.678 180.000,233.464 173.406,236.400 171.245 C 240.334 168.349,240.022 166.595,239.904 190.900 M185.917 182.281 L 185.800 185.361 180.875 187.039 C 178.167 187.961,175.557 188.803,175.075 188.909 C 173.091 189.345,168.126 190.342,167.126 190.504 C 164.032 191.008,164.811 189.038,168.238 187.690 C 171.789 186.295,179.063 182.685,182.000 180.861 C 185.849 178.471,186.058 178.547,185.917 182.281 M212.800 199.407 L 212.800 212.414 202.500 212.307 L 192.200 212.200 192.092 203.923 L 191.984 195.645 193.392 195.023 C 195.659 194.020,197.291 193.321,199.000 192.620 C 202.357 191.242,203.879 190.537,207.778 188.551 C 209.990 187.423,212.025 186.478,212.300 186.451 C 212.691 186.411,212.800 189.241,212.800 199.407 M186.000 205.400 L 186.000 212.800 175.589 212.800 L 165.177 212.800 165.289 207.300 L 165.400 201.800 166.800 201.690 C 169.972 201.441,178.184 199.824,183.200 198.462 C 186.194 197.649,186.000 197.168,186.000 205.400 M223.200 227.548 L 223.200 231.896 221.500 232.326 C 220.565 232.562,218.270 233.044,216.400 233.396 C 214.530 233.748,212.595 234.137,212.100 234.261 C 211.224 234.481,211.200 234.403,211.201 231.343 L 211.202 228.200 213.701 227.082 C 215.075 226.468,217.460 225.356,219.000 224.611 C 223.315 222.526,223.200 222.446,223.200 227.548 M265.767 227.043 C 266.271 227.236,266.400 227.934,266.400 230.455 L 266.400 233.625 261.700 233.513 L 257.000 233.400 256.881 230.435 C 256.797 228.334,256.913 227.375,257.281 227.141 C 257.880 226.761,264.824 226.681,265.767 227.043 M122.599 229.369 C 126.602 230.762,128.817 234.186,128.930 239.160 L 129.000 242.200 124.600 242.200 L 120.200 242.200 119.990 240.400 C 119.667 237.638,118.147 236.577,116.814 238.184 C 115.703 239.522,116.764 241.248,122.001 246.616 C 129.435 254.237,130.897 258.260,129.045 266.000 C 127.209 273.672,119.917 276.635,112.359 272.779 C 108.923 271.026,106.362 263.590,107.362 258.264 L 107.641 256.774 112.121 256.887 L 116.600 257.000 116.800 260.800 C 117.025 265.066,117.229 265.600,118.634 265.600 C 119.946 265.600,120.547 264.014,120.211 261.437 C 119.833 258.528,119.123 257.465,114.190 252.407 C 107.418 245.463,106.010 241.080,108.472 234.600 C 110.296 229.799,116.855 227.370,122.599 229.369 M283.494 229.284 C 286.528 230.056,288.578 231.667,289.870 234.298 L 291.000 236.600 291.113 250.600 C 291.222 263.964,291.189 264.709,290.385 267.000 C 288.970 271.033,288.961 270.919,290.771 271.935 C 292.712 273.026,292.693 272.876,291.205 275.471 C 289.566 278.327,289.548 278.329,286.015 276.010 C 282.941 273.992,282.799 273.944,279.536 273.825 C 274.702 273.649,272.227 272.092,270.274 268.000 C 268.898 265.115,268.930 237.544,270.313 234.766 C 272.676 230.019,277.876 227.856,283.494 229.284 M142.800 233.183 C 142.992 236.819,143.039 236.976,144.000 237.201 C 144.969 237.429,145.000 237.540,145.000 240.818 L 145.000 244.200 143.900 244.327 L 142.800 244.453 142.800 255.637 L 142.800 266.820 144.000 267.060 L 145.200 267.300 145.200 270.422 L 145.200 273.543 142.925 274.016 C 139.169 274.795,135.445 273.878,134.312 271.896 C 133.937 271.239,133.747 267.475,133.600 257.800 L 133.400 244.600 132.300 244.473 L 131.200 244.347 131.200 240.800 L 131.200 237.253 132.300 237.127 L 133.400 237.000 133.515 233.087 L 133.629 229.174 138.115 229.287 L 142.600 229.400 142.800 233.183 M200.800 232.567 C 200.800 236.568,200.991 237.200,202.200 237.200 C 204.432 237.200,204.240 244.145,202.000 244.460 L 201.000 244.600 200.893 255.351 C 200.782 266.589,200.843 267.036,202.529 267.276 C 203.469 267.410,204.038 271.938,203.264 273.125 C 202.664 274.046,198.001 274.616,195.893 274.026 C 191.863 272.898,191.656 272.031,191.624 256.127 L 191.600 244.453 190.500 244.327 L 189.400 244.200 189.400 240.818 C 189.400 237.540,189.431 237.429,190.400 237.201 C 191.344 236.980,191.406 236.800,191.501 233.983 C 191.675 228.864,191.330 229.200,196.408 229.200 L 200.800 229.200 200.800 232.567 M163.412 236.105 C 163.537 236.602,163.585 238.343,163.519 239.973 L 163.400 242.936 160.600 243.490 C 156.556 244.290,156.800 243.264,156.800 259.476 L 156.800 273.600 152.196 273.600 L 147.592 273.600 147.696 254.700 L 147.800 235.800 152.195 235.800 C 156.279 235.800,156.598 235.856,156.718 236.600 C 157.008 238.402,157.193 238.517,158.047 237.431 C 159.675 235.362,163.018 234.535,163.412 236.105 M182.147 236.556 C 187.056 238.958,187.200 239.578,187.200 258.272 L 187.200 273.625 182.500 273.513 C 177.905 273.403,177.797 273.379,177.667 272.457 L 177.533 271.514 176.467 272.493 C 174.637 274.173,173.064 274.586,170.601 274.035 C 166.318 273.077,164.800 270.110,164.800 262.697 C 164.800 255.175,166.683 252.657,174.117 250.239 L 177.600 249.106 177.600 246.415 C 177.600 244.232,177.449 243.587,176.800 243.000 C 175.575 241.891,174.400 243.103,174.400 245.475 L 174.400 247.226 169.900 247.113 L 165.400 247.000 165.481 244.088 C 165.692 236.515,174.201 232.669,182.147 236.556 M221.483 235.841 C 226.668 237.349,228.182 240.273,228.193 248.800 C 228.203 256.677,228.840 256.000,221.413 256.000 L 215.200 256.000 215.200 260.669 C 215.200 264.451,215.326 265.476,215.862 266.069 C 217.500 267.879,218.800 266.435,218.800 262.804 C 218.800 258.643,218.612 258.800,223.616 258.800 C 228.724 258.800,228.626 258.699,228.179 263.517 C 227.422 271.694,221.789 275.842,213.947 273.997 C 206.819 272.321,205.600 269.420,205.600 254.127 C 205.600 242.808,205.995 240.701,208.588 238.200 C 211.398 235.491,216.847 234.494,221.483 235.841 M241.313 235.738 C 242.021 236.034,242.851 236.579,243.158 236.949 C 243.673 237.570,243.750 237.552,244.169 236.711 C 244.709 235.625,252.309 235.095,253.474 236.061 C 254.312 236.757,254.033 270.526,253.169 273.000 C 251.610 277.465,247.576 279.347,240.029 279.132 C 232.116 278.906,229.563 277.158,231.721 273.442 C 233.303 270.719,233.439 270.663,236.166 271.622 C 240.793 273.248,244.000 272.086,244.000 268.781 C 244.000 267.800,243.777 267.803,242.509 268.800 C 239.398 271.247,233.545 269.191,231.838 265.051 C 231.039 263.111,230.892 242.921,231.659 240.361 C 232.891 236.249,237.386 234.096,241.313 235.738 M265.767 235.843 C 266.332 236.059,266.400 238.108,266.400 254.843 L 266.400 273.600 261.600 273.600 L 256.800 273.600 256.800 254.833 C 256.800 240.194,256.910 236.022,257.300 235.865 C 258.022 235.574,265.018 235.555,265.767 235.843 M279.100 237.632 C 278.128 238.198,278.012 264.380,278.978 265.182 C 281.705 267.445,282.350 264.866,282.377 251.597 C 282.405 237.932,281.946 235.974,279.100 237.632 M215.823 243.289 C 215.381 243.920,215.200 245.140,215.200 247.489 L 215.200 250.800 217.000 250.800 L 218.800 250.800 218.800 247.489 C 218.800 244.090,218.202 242.400,217.000 242.400 C 216.695 242.400,216.165 242.800,215.823 243.289 M241.339 242.995 C 240.661 243.490,240.600 244.226,240.600 251.868 C 240.600 261.219,240.771 262.400,242.128 262.400 C 243.907 262.400,244.000 261.930,244.000 252.894 C 244.000 243.133,243.532 241.392,241.339 242.995 M175.436 255.631 C 174.028 257.304,173.824 265.664,175.174 266.386 C 177.194 267.467,177.600 266.392,177.600 259.971 C 177.600 253.802,177.367 253.335,175.436 255.631 M245.200 284.580 C 245.200 284.899,245.515 285.337,245.900 285.553 C 246.550 285.918,246.543 285.965,245.800 286.211 C 245.360 286.357,244.730 286.568,244.400 286.678 C 243.948 286.830,244.023 286.966,244.700 287.227 C 245.761 287.636,245.789 287.754,245.012 288.531 C 244.494 289.049,244.542 289.149,245.412 289.367 C 247.097 289.790,246.500 290.400,244.400 290.400 L 242.400 290.400 242.400 288.156 C 242.400 286.378,242.586 285.716,243.300 284.963 C 244.316 283.891,245.200 283.713,245.200 284.580 M113.028 285.506 C 113.263 285.668,113.777 286.610,114.171 287.600 C 114.565 288.590,114.977 289.625,115.087 289.900 C 115.340 290.536,114.226 290.548,113.219 289.919 C 112.611 289.539,112.235 289.553,111.425 289.986 C 109.979 290.760,109.778 290.303,110.598 288.109 C 111.629 285.355,112.089 284.861,113.028 285.506 M118.026 287.125 C 118.416 289.995,120.000 289.668,120.000 286.718 C 120.000 285.628,120.156 285.185,120.500 285.300 C 121.583 285.661,121.125 289.729,119.937 290.299 C 117.629 291.405,115.815 289.183,116.571 286.174 C 116.948 284.671,117.765 285.205,118.026 287.125 M126.567 285.443 C 127.437 285.776,127.361 286.265,126.400 286.516 C 125.746 286.687,125.600 287.062,125.600 288.563 C 125.600 290.133,125.484 290.400,124.800 290.400 C 124.120 290.400,124.000 290.133,124.000 288.620 C 124.000 287.386,123.799 286.727,123.344 286.473 C 121.804 285.611,124.643 284.704,126.567 285.443 M132.445 285.624 C 132.882 285.858,133.405 286.488,133.609 287.024 C 134.803 290.165,130.133 292.165,128.587 289.176 C 127.294 286.675,129.910 284.267,132.445 285.624 M137.532 286.552 C 138.077 287.668,139.200 287.427,139.200 286.194 C 139.200 285.608,140.298 285.090,140.836 285.422 C 141.341 285.735,141.295 289.894,140.782 290.211 C 140.553 290.353,140.103 290.251,139.782 289.985 C 139.372 289.645,139.200 289.635,139.200 289.951 C 139.200 290.564,137.723 290.521,137.433 289.900 C 137.247 289.500,137.153 289.500,136.967 289.900 C 136.316 291.295,135.600 290.335,135.600 288.067 C 135.600 284.894,136.414 284.256,137.532 286.552 M145.895 285.700 C 146.550 286.534,147.733 290.000,147.457 290.276 C 147.315 290.418,146.738 290.288,146.175 289.986 C 145.365 289.553,144.989 289.539,144.381 289.919 C 143.374 290.548,142.260 290.536,142.513 289.900 C 142.623 289.625,143.035 288.590,143.429 287.600 C 144.356 285.269,145.104 284.693,145.895 285.700 M152.967 285.443 C 153.837 285.776,153.761 286.265,152.800 286.516 C 152.146 286.687,152.000 287.062,152.000 288.563 C 152.000 290.133,151.884 290.400,151.200 290.400 C 150.520 290.400,150.400 290.133,150.400 288.620 C 150.400 287.386,150.199 286.727,149.744 286.473 C 148.204 285.611,151.043 284.704,152.967 285.443 M156.320 287.965 C 156.427 290.192,156.361 290.451,155.720 290.330 C 154.935 290.181,154.538 287.897,154.987 286.110 C 155.436 284.319,156.196 285.376,156.320 287.965 M160.967 285.443 C 161.851 285.782,161.758 286.400,160.824 286.400 C 159.630 286.400,159.512 287.031,160.613 287.533 C 162.713 288.490,161.265 291.204,158.963 290.626 C 157.783 290.330,157.716 289.679,158.823 289.270 L 159.646 288.965 158.823 288.221 C 156.988 286.560,158.563 284.520,160.967 285.443 M167.102 285.900 C 167.205 286.213,166.881 286.400,166.233 286.400 C 165.665 286.400,165.200 286.580,165.200 286.800 C 165.200 287.020,165.470 287.200,165.800 287.200 C 166.661 287.200,166.564 288.791,165.700 288.840 C 165.242 288.866,165.335 288.973,165.970 289.151 C 167.831 289.671,167.400 290.400,165.233 290.400 L 163.200 290.400 163.200 288.033 C 163.200 286.519,163.380 285.591,163.700 285.455 C 164.590 285.079,166.933 285.386,167.102 285.900 M172.251 285.790 C 172.376 286.114,172.098 286.994,171.634 287.745 L 170.790 289.111 171.795 289.363 C 173.559 289.806,172.875 290.400,170.600 290.400 C 168.079 290.400,168.036 290.322,169.434 288.264 C 170.454 286.762,170.457 286.740,169.634 286.525 C 169.175 286.405,168.800 286.058,168.800 285.753 C 168.800 284.963,171.947 284.996,172.251 285.790 M186.000 286.000 C 186.796 286.796,187.055 288.600,186.494 289.440 C 184.810 291.961,180.743 290.189,181.396 287.219 C 181.848 285.161,184.468 284.468,186.000 286.000 M191.911 285.823 C 193.352 286.832,192.839 288.800,191.134 288.800 C 190.746 288.800,190.235 289.160,190.000 289.600 C 189.121 291.242,188.400 290.552,188.400 288.067 C 188.400 285.024,189.640 284.232,191.911 285.823 M197.767 285.443 C 198.637 285.776,198.561 286.265,197.600 286.516 C 196.946 286.687,196.800 287.062,196.800 288.563 C 196.800 290.133,196.684 290.400,196.000 290.400 C 195.320 290.400,195.200 290.133,195.200 288.620 C 195.200 287.386,194.999 286.727,194.544 286.473 C 193.004 285.611,195.843 284.704,197.767 285.443 M201.020 286.138 C 201.456 287.875,201.059 290.182,200.300 290.326 C 199.583 290.462,199.197 286.136,199.867 285.467 C 200.372 284.962,200.785 285.202,201.020 286.138 M204.732 286.552 C 205.277 287.668,206.400 287.427,206.400 286.194 C 206.400 285.608,207.498 285.090,208.036 285.422 C 208.541 285.735,208.495 289.894,207.982 290.211 C 207.753 290.353,207.303 290.251,206.982 289.985 C 206.572 289.645,206.400 289.635,206.400 289.951 C 206.400 290.564,204.923 290.521,204.633 289.900 C 204.447 289.500,204.353 289.500,204.167 289.900 C 203.516 291.295,202.800 290.335,202.800 288.067 C 202.800 284.894,203.614 284.256,204.732 286.552 M211.420 286.138 C 211.856 287.875,211.459 290.182,210.700 290.326 C 209.983 290.462,209.597 286.136,210.267 285.467 C 210.772 284.962,211.185 285.202,211.420 286.138 M216.167 285.443 C 217.051 285.782,216.958 286.400,216.024 286.400 C 214.830 286.400,214.712 287.031,215.813 287.533 C 217.913 288.490,216.465 291.204,214.163 290.626 C 212.983 290.330,212.916 289.679,214.023 289.270 L 214.846 288.965 214.023 288.221 C 212.188 286.560,213.763 284.520,216.167 285.443 M221.989 285.585 C 222.481 285.896,222.449 285.999,221.789 286.217 C 221.355 286.360,220.730 286.568,220.400 286.678 C 219.948 286.830,220.023 286.966,220.700 287.227 C 221.761 287.636,221.789 287.754,221.012 288.531 C 220.494 289.049,220.542 289.149,221.412 289.367 C 223.097 289.790,222.500 290.400,220.400 290.400 L 218.400 290.400 218.400 288.067 C 218.400 286.783,218.520 285.613,218.667 285.467 C 219.059 285.074,221.308 285.154,221.989 285.585 M227.405 285.607 C 227.543 285.831,227.284 286.618,226.828 287.355 C 225.810 289.002,225.809 289.057,226.800 289.316 C 228.335 289.717,227.621 290.400,225.667 290.400 C 223.180 290.400,223.033 290.203,224.218 288.459 C 225.408 286.708,225.436 286.400,224.400 286.400 C 223.603 286.400,223.360 285.974,223.867 285.467 C 224.289 285.044,227.126 285.157,227.405 285.607 M240.003 285.602 C 240.614 285.929,240.739 286.412,240.677 288.201 C 240.597 290.478,239.999 291.039,238.863 289.903 C 238.468 289.508,238.297 289.520,238.024 289.962 C 236.964 291.676,235.770 288.107,236.643 285.833 C 236.919 285.112,238.842 284.980,240.003 285.602 M248.800 286.751 C 248.800 289.672,250.387 289.973,250.774 287.125 C 251.035 285.205,251.852 284.671,252.229 286.174 C 252.984 289.182,251.173 291.403,248.863 290.301 C 247.796 289.792,247.184 287.262,247.762 285.754 C 248.187 284.648,248.800 285.237,248.800 286.751 M256.967 285.443 C 257.851 285.782,257.758 286.400,256.824 286.400 C 255.630 286.400,255.512 287.031,256.613 287.533 C 258.713 288.490,257.265 291.204,254.963 290.626 C 253.783 290.330,253.716 289.679,254.823 289.270 L 255.646 288.965 254.823 288.221 C 252.988 286.560,254.563 284.520,256.967 285.443 M262.302 285.900 C 262.393 286.175,262.182 286.400,261.833 286.400 C 260.948 286.400,261.043 287.088,262.000 287.600 C 263.878 288.605,262.322 291.168,260.163 290.626 C 258.811 290.287,258.914 289.203,260.300 289.189 L 261.400 289.179 260.300 288.497 C 259.128 287.770,258.750 285.856,259.700 285.456 C 260.543 285.101,262.129 285.372,262.302 285.900 M265.920 287.965 C 266.027 290.192,265.961 290.451,265.320 290.330 C 264.535 290.181,264.138 287.897,264.587 286.110 C 265.036 284.319,265.796 285.376,265.920 287.965 M270.567 285.443 C 271.451 285.782,271.358 286.400,270.424 286.400 C 269.230 286.400,269.112 287.031,270.213 287.533 C 272.313 288.490,270.865 291.204,268.563 290.626 C 267.383 290.330,267.316 289.679,268.423 289.270 L 269.246 288.965 268.423 288.221 C 266.588 286.560,268.163 284.520,270.567 285.443 M276.302 285.900 C 276.399 286.193,276.121 286.400,275.633 286.400 C 274.541 286.400,274.582 286.651,275.851 287.743 C 277.665 289.303,276.223 291.172,273.695 290.538 C 272.556 290.252,272.725 289.501,273.996 289.201 L 274.934 288.980 273.867 288.281 C 272.646 287.481,272.474 286.234,273.500 285.623 C 274.400 285.086,276.090 285.253,276.302 285.900 M281.989 285.585 C 282.481 285.896,282.449 285.999,281.789 286.217 C 281.355 286.360,280.730 286.568,280.400 286.678 C 279.948 286.830,280.023 286.966,280.700 287.227 C 281.761 287.636,281.789 287.754,281.012 288.531 C 280.494 289.049,280.542 289.149,281.412 289.367 C 283.097 289.790,282.500 290.400,280.400 290.400 L 278.400 290.400 278.400 288.067 C 278.400 286.783,278.520 285.613,278.667 285.467 C 279.059 285.074,281.308 285.154,281.989 285.585 M287.405 285.607 C 287.543 285.831,287.284 286.618,286.828 287.355 C 285.810 289.002,285.809 289.057,286.800 289.316 C 288.335 289.717,287.621 290.400,285.667 290.400 C 283.180 290.400,283.033 290.203,284.218 288.459 C 285.408 286.708,285.436 286.400,284.400 286.400 C 283.603 286.400,283.360 285.974,283.867 285.467 C 284.289 285.044,287.126 285.157,287.405 285.607 M130.056 287.333 C 129.443 288.071,130.440 289.424,131.342 289.078 C 132.295 288.712,132.217 286.800,131.249 286.800 C 130.836 286.800,130.299 287.040,130.056 287.333 M183.036 287.450 C 182.697 288.334,183.724 289.391,184.597 289.056 C 185.003 288.901,185.207 288.457,185.128 287.902 C 184.969 286.779,183.422 286.444,183.036 287.450 M175.614 290.983 C 175.332 291.322,174.944 291.600,174.751 291.600 C 174.206 291.600,174.337 290.090,174.900 289.883 C 175.713 289.585,176.179 290.302,175.614 290.983 M230.814 290.983 C 230.532 291.322,230.144 291.600,229.951 291.600 C 229.406 291.600,229.537 290.090,230.100 289.883 C 230.913 289.585,231.379 290.302,230.814 290.983 " stroke="none" fill="#fbfbfb" fill-rule="evenodd"></path><path id="path1" d="M221.000 224.194 C 220.340 224.510,217.865 225.669,215.500 226.770 L 211.200 228.771 211.200 231.186 C 211.200 234.091,211.078 234.063,217.800 232.690 C 223.537 231.518,223.200 231.850,223.200 227.376 C 223.200 223.275,223.129 223.173,221.000 224.194 M257.480 227.454 C 257.091 227.842,257.139 232.085,257.539 232.715 C 257.779 233.093,258.929 233.200,261.833 233.115 L 265.800 233.000 265.800 230.200 L 265.800 227.400 261.780 227.287 C 259.569 227.225,257.634 227.300,257.480 227.454 M115.400 229.369 C 115.180 229.458,114.500 229.640,113.890 229.775 C 110.561 230.510,108.000 235.044,108.000 240.204 C 108.000 244.801,108.967 246.555,114.880 252.681 C 120.159 258.151,120.800 259.262,120.800 262.937 C 120.800 265.070,119.572 266.280,117.847 265.848 C 116.571 265.527,116.317 264.820,116.037 260.800 L 115.800 257.400 112.000 257.400 L 108.200 257.400 108.087 261.449 C 107.845 270.070,110.971 273.600,118.849 273.600 C 126.237 273.600,128.960 270.206,128.958 261.000 C 128.957 255.000,128.181 253.451,122.173 247.441 C 115.670 240.936,114.636 238.912,117.018 237.351 C 118.659 236.276,119.927 237.189,120.080 239.557 L 120.200 241.400 124.500 241.514 L 128.800 241.627 128.796 239.914 C 128.786 236.015,126.884 232.152,124.201 230.580 C 122.576 229.627,116.750 228.826,115.400 229.369 M133.994 233.086 C 133.987 237.012,133.831 237.459,132.400 237.660 C 130.758 237.890,130.851 243.737,132.499 243.926 C 133.997 244.099,133.981 243.949,134.098 258.533 L 134.200 271.267 135.522 272.448 C 136.818 273.605,136.922 273.626,140.722 273.514 L 144.600 273.400 144.600 270.400 C 144.600 267.425,144.591 267.399,143.500 267.273 L 142.400 267.147 142.400 255.573 L 142.400 244.000 143.600 244.000 L 144.800 244.000 144.800 240.800 L 144.800 237.600 143.614 237.600 L 142.429 237.600 142.314 233.700 L 142.200 229.800 138.100 229.686 L 134.000 229.572 133.994 233.086 M192.267 229.867 C 192.120 230.013,192.000 231.813,192.000 233.867 L 192.000 237.600 190.783 237.600 L 189.566 237.600 189.683 240.700 C 189.798 243.751,189.817 243.802,190.900 243.927 L 192.000 244.053 192.000 256.567 C 192.000 273.334,192.102 273.594,198.651 273.598 C 203.074 273.600,203.285 273.427,203.120 269.935 C 203.006 267.529,202.946 267.394,201.946 267.278 C 200.490 267.109,200.399 266.400,200.405 255.250 C 200.412 244.484,200.465 244.094,201.941 243.923 C 202.981 243.802,203.000 243.747,203.000 240.800 C 203.000 237.853,202.981 237.798,201.941 237.677 C 200.635 237.526,200.413 236.805,200.405 232.700 L 200.400 229.600 196.467 229.600 C 194.303 229.600,192.413 229.720,192.267 229.867 M160.958 236.034 C 159.735 236.387,157.600 238.180,157.600 238.855 C 157.600 239.964,156.827 238.945,156.724 237.700 L 156.600 236.200 152.400 236.200 L 148.200 236.200 148.200 254.800 L 148.200 273.400 152.400 273.400 L 156.600 273.400 156.705 258.715 L 156.810 244.029 158.305 243.630 C 159.127 243.411,160.520 243.083,161.400 242.901 L 163.000 242.570 163.000 239.218 C 163.000 235.633,162.898 235.475,160.958 236.034 M173.200 235.964 C 168.192 236.778,165.600 239.910,165.600 245.146 L 165.600 246.800 169.613 246.800 C 172.481 246.800,173.665 246.657,173.765 246.300 C 173.842 246.025,174.062 245.080,174.253 244.200 C 174.700 242.139,176.909 241.582,177.584 243.359 C 179.299 247.868,178.546 249.317,173.648 250.936 C 167.707 252.899,166.079 254.624,165.212 259.873 C 163.477 270.370,170.330 277.775,176.276 271.829 C 178.081 270.024,178.273 270.057,178.483 272.200 L 178.600 273.400 182.600 273.400 L 186.600 273.400 186.705 258.461 C 186.772 248.909,186.658 242.957,186.388 241.956 C 185.194 237.522,179.508 234.939,173.200 235.964 M214.800 235.868 C 211.526 236.244,208.962 237.902,207.309 240.714 L 206.200 242.600 206.218 254.200 C 206.245 271.212,207.594 273.616,217.096 273.589 C 224.611 273.567,228.618 268.914,227.938 261.000 L 227.800 259.400 223.600 259.400 L 219.400 259.400 219.282 262.589 C 219.148 266.176,218.530 267.319,216.830 267.119 C 215.226 266.930,214.812 265.539,214.806 260.308 C 214.799 254.733,214.081 255.238,222.200 255.097 L 227.800 255.000 227.927 250.200 C 228.226 238.907,224.432 234.764,214.800 235.868 M237.200 235.865 C 232.328 236.705,231.236 239.745,231.214 252.523 C 231.192 265.243,232.179 267.995,237.189 269.197 C 239.522 269.757,241.427 269.293,243.078 267.762 C 244.856 266.115,245.227 266.684,244.329 269.681 C 243.390 272.812,239.891 273.753,235.763 271.984 C 233.604 271.059,233.507 271.107,232.000 273.867 C 230.161 277.235,232.766 278.603,241.000 278.593 C 252.914 278.578,253.400 277.592,253.400 253.400 L 253.400 236.200 249.100 236.086 L 244.800 235.973 244.800 237.386 C 244.800 239.138,244.591 239.143,242.817 237.440 C 241.373 236.054,239.367 235.491,237.200 235.865 M257.389 236.486 C 257.280 236.769,257.238 245.190,257.296 255.200 L 257.400 273.400 261.600 273.400 L 265.800 273.400 265.800 254.800 L 265.800 236.200 261.693 236.086 C 258.631 236.001,257.536 236.103,257.389 236.486 M218.400 242.800 C 219.088 243.488,219.200 244.133,219.200 247.400 L 219.200 251.200 216.963 251.200 L 214.725 251.200 214.863 247.167 C 215.032 242.193,216.268 240.668,218.400 242.800 M244.099 244.000 C 244.903 245.608,245.134 258.239,244.407 260.775 C 243.728 263.144,241.639 263.609,240.610 261.620 C 239.828 260.107,239.715 245.063,240.473 243.399 C 241.199 241.806,243.166 242.132,244.099 244.000 M177.911 259.586 C 178.034 265.898,177.635 267.375,175.875 267.125 C 172.875 266.698,172.751 257.275,175.711 254.696 C 177.650 253.008,177.789 253.317,177.911 259.586 M111.844 286.589 C 111.490 287.130,111.200 287.812,111.200 288.106 C 111.200 288.400,110.987 288.853,110.727 289.113 C 110.059 289.781,110.651 290.222,111.390 289.608 C 111.726 289.330,112.000 288.573,112.000 287.927 C 112.000 287.246,112.168 286.857,112.400 287.000 C 112.620 287.136,112.800 287.609,112.800 288.052 C 112.800 288.903,113.882 290.251,114.261 289.872 C 114.517 289.616,113.233 286.068,112.784 285.790 C 112.621 285.689,112.198 286.049,111.844 286.589 M123.600 285.957 C 123.600 286.154,123.870 286.418,124.200 286.545 C 124.587 286.693,124.824 287.382,124.867 288.487 L 124.934 290.200 125.097 288.600 C 125.186 287.720,125.544 286.685,125.892 286.300 C 126.483 285.646,126.429 285.600,125.062 285.600 C 124.258 285.600,123.600 285.761,123.600 285.957 M129.462 286.331 C 127.316 288.702,130.542 291.804,132.730 289.474 C 133.770 288.368,133.807 287.888,132.954 286.586 C 132.172 285.393,130.427 285.265,129.462 286.331 M139.533 286.588 C 139.172 287.379,139.172 287.732,139.531 288.091 C 139.789 288.349,140.000 288.884,140.000 289.280 C 140.000 289.676,140.180 290.000,140.400 290.000 C 140.921 290.000,140.922 286.123,140.402 285.801 C 140.183 285.666,139.792 286.020,139.533 286.588 M143.997 287.408 C 143.178 289.317,143.029 290.000,143.429 290.000 C 143.961 290.000,144.800 288.794,144.800 288.029 C 144.800 287.573,144.980 287.200,145.200 287.200 C 145.420 287.200,145.600 287.628,145.600 288.151 C 145.600 289.069,146.610 290.323,147.020 289.914 C 147.294 289.639,145.771 286.153,145.230 285.818 C 144.968 285.657,144.475 286.293,143.997 287.408 M150.000 285.957 C 150.000 286.154,150.270 286.418,150.600 286.545 C 150.987 286.693,151.224 287.382,151.267 288.487 L 151.334 290.200 151.497 288.600 C 151.586 287.720,151.944 286.685,152.292 286.300 C 152.883 285.646,152.829 285.600,151.462 285.600 C 150.658 285.600,150.000 285.761,150.000 285.957 M158.667 285.867 C 158.145 286.389,158.411 287.629,159.100 287.883 C 160.477 288.391,160.829 289.600,159.600 289.600 C 159.160 289.600,158.800 289.793,158.800 290.028 C 158.800 290.704,160.471 290.277,160.959 289.477 C 161.323 288.879,161.209 288.613,160.300 287.943 C 159.086 287.049,158.876 286.400,159.800 286.400 C 160.130 286.400,160.400 286.220,160.400 286.000 C 160.400 285.553,159.082 285.452,158.667 285.867 M164.080 287.900 C 164.194 290.077,164.259 290.207,165.300 290.327 C 165.905 290.396,166.400 290.261,166.400 290.027 C 166.400 289.792,166.040 289.600,165.600 289.600 C 164.978 289.600,164.800 289.333,164.800 288.400 C 164.800 287.740,164.755 287.065,164.700 286.900 C 164.645 286.735,165.005 286.542,165.500 286.472 C 166.839 286.282,166.589 285.600,165.180 285.600 L 163.960 285.600 164.080 287.900 M169.200 286.000 C 169.200 286.220,169.560 286.400,170.000 286.400 C 171.036 286.400,171.008 286.708,169.818 288.459 C 169.278 289.253,168.948 290.015,169.085 290.152 C 169.495 290.562,172.000 290.431,172.000 290.000 C 172.000 289.780,171.640 289.600,171.200 289.600 C 170.746 289.600,170.400 289.333,170.400 288.983 C 170.400 288.644,170.760 287.980,171.200 287.508 C 172.406 286.214,172.212 285.600,170.600 285.600 C 169.830 285.600,169.200 285.780,169.200 286.000 M182.262 286.331 C 181.350 287.339,181.433 288.614,182.475 289.584 C 184.038 291.040,186.400 290.110,186.400 288.039 C 186.400 285.894,183.676 284.769,182.262 286.331 M189.086 285.848 C 188.645 286.288,188.748 290.000,189.200 290.000 C 189.420 290.000,189.600 289.730,189.600 289.400 C 189.600 289.070,189.938 288.800,190.351 288.800 C 192.370 288.800,192.590 285.877,190.586 285.681 C 189.918 285.616,189.243 285.691,189.086 285.848 M194.800 285.957 C 194.800 286.154,195.070 286.418,195.400 286.545 C 195.787 286.693,196.024 287.382,196.067 288.487 L 196.134 290.200 196.297 288.600 C 196.386 287.720,196.744 286.685,197.092 286.300 C 197.683 285.646,197.629 285.600,196.262 285.600 C 195.458 285.600,194.800 285.761,194.800 285.957 M206.733 286.588 C 206.372 287.379,206.372 287.732,206.731 288.091 C 206.989 288.349,207.200 288.884,207.200 289.280 C 207.200 289.676,207.380 290.000,207.600 290.000 C 208.121 290.000,208.122 286.123,207.602 285.801 C 207.383 285.666,206.992 286.020,206.733 286.588 M213.867 285.867 C 213.345 286.389,213.611 287.629,214.300 287.883 C 215.677 288.391,216.029 289.600,214.800 289.600 C 214.360 289.600,214.000 289.793,214.000 290.028 C 214.000 290.704,215.671 290.277,216.159 289.477 C 216.523 288.879,216.409 288.613,215.500 287.943 C 214.286 287.049,214.076 286.400,215.000 286.400 C 215.330 286.400,215.600 286.220,215.600 286.000 C 215.600 285.553,214.282 285.452,213.867 285.867 M218.962 286.154 C 218.033 288.575,219.832 291.528,221.326 290.034 C 221.638 289.722,221.447 289.600,220.648 289.600 C 219.621 289.600,219.556 289.509,219.800 288.400 C 219.972 287.615,219.906 287.200,219.608 287.200 C 219.358 287.200,219.264 287.020,219.400 286.800 C 219.536 286.580,219.997 286.400,220.424 286.400 C 220.851 286.400,221.200 286.220,221.200 286.000 C 221.200 285.387,219.204 285.525,218.962 286.154 M224.400 285.953 C 224.400 286.148,224.778 286.406,225.241 286.527 C 226.068 286.743,226.064 286.769,225.006 288.156 C 224.415 288.931,224.047 289.753,224.189 289.983 C 224.519 290.516,226.800 290.531,226.800 290.000 C 226.800 289.780,226.440 289.600,226.000 289.600 C 224.964 289.600,224.992 289.292,226.182 287.541 C 226.722 286.747,227.052 285.985,226.915 285.848 C 226.532 285.465,224.400 285.555,224.400 285.953 M237.067 285.867 C 236.640 286.294,236.759 290.000,237.200 290.000 C 237.420 290.000,237.600 289.730,237.600 289.400 C 237.600 288.566,239.048 288.646,239.416 289.500 C 239.640 290.019,239.804 289.741,240.050 288.430 C 240.486 286.108,238.517 284.417,237.067 285.867 M242.880 287.900 C 243.004 290.279,244.113 291.247,245.326 290.034 C 245.638 289.722,245.447 289.600,244.648 289.600 C 243.621 289.600,243.556 289.509,243.800 288.400 C 243.972 287.615,243.906 287.200,243.608 287.200 C 243.358 287.200,243.264 287.020,243.400 286.800 C 243.536 286.580,243.997 286.400,244.424 286.400 C 244.851 286.400,245.200 286.220,245.200 286.000 C 245.200 285.780,244.651 285.600,243.980 285.600 L 242.760 285.600 242.880 287.900 M254.667 285.867 C 254.145 286.389,254.411 287.629,255.100 287.883 C 256.477 288.391,256.829 289.600,255.600 289.600 C 255.160 289.600,254.800 289.793,254.800 290.028 C 254.800 290.704,256.471 290.277,256.959 289.477 C 257.323 288.879,257.209 288.613,256.300 287.943 C 255.086 287.049,254.876 286.400,255.800 286.400 C 256.130 286.400,256.400 286.220,256.400 286.000 C 256.400 285.553,255.082 285.452,254.667 285.867 M259.867 285.867 C 259.345 286.389,259.611 287.629,260.300 287.883 C 261.803 288.438,262.006 289.600,260.600 289.600 C 260.050 289.600,259.600 289.780,259.600 290.000 C 259.600 290.445,260.792 290.531,261.767 290.157 C 262.720 289.792,262.528 288.576,261.400 287.837 C 260.196 287.048,260.105 286.400,261.200 286.400 C 261.640 286.400,262.000 286.220,262.000 286.000 C 262.000 285.555,260.285 285.448,259.867 285.867 M268.267 285.867 C 267.745 286.389,268.011 287.629,268.700 287.883 C 270.077 288.391,270.429 289.600,269.200 289.600 C 268.760 289.600,268.400 289.793,268.400 290.028 C 268.400 290.704,270.071 290.277,270.559 289.477 C 270.923 288.879,270.809 288.613,269.900 287.943 C 268.686 287.049,268.476 286.400,269.400 286.400 C 269.730 286.400,270.000 286.220,270.000 286.000 C 270.000 285.553,268.682 285.452,268.267 285.867 M273.867 285.867 C 273.328 286.406,273.622 287.584,274.400 288.000 C 274.840 288.235,275.200 288.692,275.200 289.014 C 275.200 289.336,274.840 289.600,274.400 289.600 C 273.960 289.600,273.600 289.780,273.600 290.000 C 273.600 290.688,275.553 290.436,275.932 289.700 C 276.373 288.842,276.115 288.000,275.409 288.000 C 275.121 288.000,274.776 287.715,274.643 287.367 C 274.300 286.473,274.327 286.400,275.000 286.400 C 275.330 286.400,275.600 286.220,275.600 286.000 C 275.600 285.553,274.282 285.452,273.867 285.867 M278.962 286.154 C 278.033 288.575,279.832 291.528,281.326 290.034 C 281.638 289.722,281.447 289.600,280.648 289.600 C 279.621 289.600,279.556 289.509,279.800 288.400 C 279.972 287.615,279.906 287.200,279.608 287.200 C 279.358 287.200,279.264 287.020,279.400 286.800 C 279.536 286.580,279.997 286.400,280.424 286.400 C 280.851 286.400,281.200 286.220,281.200 286.000 C 281.200 285.387,279.204 285.525,278.962 286.154 M284.400 285.953 C 284.400 286.148,284.778 286.406,285.241 286.527 C 286.068 286.743,286.064 286.769,285.006 288.156 C 284.415 288.931,284.047 289.753,284.189 289.983 C 284.519 290.516,286.800 290.531,286.800 290.000 C 286.800 289.780,286.440 289.600,286.000 289.600 C 284.964 289.600,284.992 289.292,286.182 287.541 C 286.722 286.747,287.052 285.985,286.915 285.848 C 286.532 285.465,284.400 285.555,284.400 285.953 M116.800 287.538 C 116.800 289.903,118.477 291.075,120.100 289.843 C 120.863 289.264,121.118 286.000,120.400 286.000 C 120.180 286.000,120.000 286.822,120.000 287.827 C 120.000 290.537,117.874 290.421,117.677 287.700 C 117.524 285.580,116.800 285.447,116.800 287.538 M136.000 288.000 C 136.000 289.100,136.180 290.000,136.400 290.000 C 136.620 290.000,136.800 289.676,136.800 289.280 C 136.800 288.884,136.997 288.363,137.237 288.123 C 137.553 287.807,137.549 287.453,137.223 286.843 C 136.473 285.441,136.000 285.888,136.000 288.000 M155.200 288.000 C 155.200 289.100,155.380 290.000,155.600 290.000 C 155.820 290.000,156.000 289.100,156.000 288.000 C 156.000 286.900,155.820 286.000,155.600 286.000 C 155.380 286.000,155.200 286.900,155.200 288.000 M200.000 288.000 C 200.000 289.100,200.180 290.000,200.400 290.000 C 200.620 290.000,200.800 289.100,200.800 288.000 C 200.800 286.900,200.620 286.000,200.400 286.000 C 200.180 286.000,200.000 286.900,200.000 288.000 M203.200 288.000 C 203.200 289.100,203.380 290.000,203.600 290.000 C 203.820 290.000,204.000 289.676,204.000 289.280 C 204.000 288.884,204.197 288.363,204.437 288.123 C 204.753 287.807,204.749 287.453,204.423 286.843 C 203.673 285.441,203.200 285.888,203.200 288.000 M210.400 288.000 C 210.400 289.100,210.580 290.000,210.800 290.000 C 211.020 290.000,211.200 289.100,211.200 288.000 C 211.200 286.900,211.020 286.000,210.800 286.000 C 210.580 286.000,210.400 286.900,210.400 288.000 M248.000 287.656 C 248.000 289.361,248.747 290.362,250.038 290.387 C 251.080 290.408,252.000 289.040,252.000 287.469 C 252.000 285.428,251.273 285.620,251.123 287.700 C 250.926 290.421,248.800 290.537,248.800 287.827 C 248.800 286.822,248.620 286.000,248.400 286.000 C 248.180 286.000,248.000 286.745,248.000 287.656 M264.800 288.000 C 264.800 289.100,264.980 290.000,265.200 290.000 C 265.420 290.000,265.600 289.100,265.600 288.000 C 265.600 286.900,265.420 286.000,265.200 286.000 C 264.980 286.000,264.800 286.900,264.800 288.000 M132.558 287.300 C 133.200 288.327,132.382 289.400,130.956 289.400 C 129.758 289.400,129.237 288.324,129.766 286.944 C 130.073 286.145,131.988 286.390,132.558 287.300 M185.400 287.756 C 185.400 289.184,184.326 290.001,183.300 289.355 C 181.731 288.367,182.510 286.264,184.366 286.480 C 185.212 286.578,185.400 286.810,185.400 287.756 M191.200 287.200 C 191.200 287.733,190.933 288.000,190.400 288.000 C 189.867 288.000,189.600 287.733,189.600 287.200 C 189.600 286.667,189.867 286.400,190.400 286.400 C 190.933 286.400,191.200 286.667,191.200 287.200 M239.524 287.100 C 239.450 287.485,239.034 287.800,238.600 287.800 C 238.166 287.800,237.750 287.485,237.676 287.100 C 237.575 286.576,237.807 286.400,238.600 286.400 C 239.393 286.400,239.625 286.576,239.524 287.100 M138.042 288.366 C 137.715 288.573,137.592 289.003,137.746 289.405 C 137.960 289.962,138.121 289.998,138.605 289.596 C 139.742 288.652,139.259 287.595,138.042 288.366 M205.242 288.366 C 204.915 288.573,204.792 289.003,204.946 289.405 C 205.160 289.962,205.321 289.998,205.805 289.596 C 206.942 288.652,206.459 287.595,205.242 288.366 " stroke="none" fill="#383848" fill-rule="evenodd"></path><path id="path2" d="M219.600 106.424 C 219.600 115.992,219.745 121.958,219.973 121.817 C 220.179 121.690,221.124 121.430,222.073 121.240 C 226.047 120.443,238.548 117.556,238.861 117.362 C 239.047 117.247,239.200 111.223,239.200 103.976 L 239.200 90.800 229.400 90.800 L 219.600 90.800 219.600 106.424 M192.800 132.424 C 192.800 154.094,192.902 159.587,193.300 159.351 C 194.737 158.498,201.668 152.338,206.694 147.447 L 212.400 141.894 212.400 123.547 L 212.400 105.200 202.600 105.200 L 192.800 105.200 192.800 132.424 M165.600 150.567 C 165.600 164.519,165.711 176.223,165.846 176.576 C 166.217 177.541,179.730 169.965,184.226 166.271 L 185.600 165.142 185.600 145.171 L 185.600 125.200 175.600 125.200 L 165.600 125.200 165.600 150.567 M219.602 129.900 L 219.604 133.800 220.600 132.600 C 221.148 131.940,221.978 130.806,222.443 130.081 L 223.289 128.762 221.744 127.397 C 219.609 125.511,219.600 125.522,219.602 129.900 M233.200 140.200 C 232.798 140.684,232.808 140.799,233.251 140.795 C 234.361 140.783,235.585 140.299,235.372 139.955 C 235.027 139.396,233.747 139.540,233.200 140.200 M225.139 147.948 L 219.678 153.000 219.639 159.300 C 219.618 162.765,219.704 165.600,219.831 165.600 C 220.848 165.600,232.168 155.232,235.678 151.086 C 237.562 148.860,237.706 149.201,233.200 145.203 L 230.600 142.897 225.139 147.948 M207.164 163.728 C 204.394 165.967,200.029 169.383,197.464 171.317 L 192.800 174.835 192.800 178.217 C 192.800 180.529,192.948 181.600,193.267 181.600 C 193.926 181.600,202.123 177.227,207.700 173.901 L 212.400 171.097 212.400 165.349 C 212.400 162.187,212.355 159.612,212.300 159.628 C 212.245 159.643,209.934 161.488,207.164 163.728 M234.200 173.427 C 231.560 175.313,227.195 178.233,224.500 179.916 L 219.600 182.975 219.600 197.488 L 219.600 212.000 229.213 212.000 C 236.534 212.000,238.871 211.881,239.017 211.500 C 239.122 211.225,239.161 201.775,239.104 190.499 L 239.000 169.998 234.200 173.427 M182.000 181.452 C 178.225 183.731,173.002 186.336,169.270 187.801 C 164.555 189.650,164.560 190.510,169.280 189.584 C 174.691 188.522,184.782 185.407,185.294 184.640 C 185.681 184.060,185.687 179.594,185.300 179.620 C 185.135 179.631,183.650 180.455,182.000 181.452 M208.600 188.793 C 206.620 189.824,202.256 191.823,198.903 193.234 L 192.806 195.800 192.903 203.800 L 193.000 211.800 202.700 211.907 L 212.400 212.014 212.400 199.407 C 212.400 192.473,212.355 186.826,212.300 186.859 C 212.245 186.891,210.580 187.762,208.600 188.793 M182.200 199.284 C 177.341 200.600,170.034 202.000,168.022 202.000 C 165.610 202.000,165.600 202.024,165.600 207.833 L 165.600 212.400 175.600 212.400 L 185.600 212.400 185.600 205.624 C 185.600 197.850,185.841 198.298,182.200 199.284 " stroke="none" fill="#7cdc54" fill-rule="evenodd"></path><path id="path3" d="M238.600 120.683 C 238.160 120.762,236.990 121.013,236.000 121.241 C 235.010 121.469,233.390 121.834,232.400 122.052 C 231.410 122.269,229.970 122.597,229.200 122.780 C 228.430 122.963,226.675 123.350,225.300 123.639 C 222.287 124.273,222.279 124.316,224.800 126.239 C 227.760 128.496,227.795 128.414,219.849 137.800 C 216.348 141.936,203.571 154.527,199.200 158.148 C 197.110 159.880,194.949 161.680,194.399 162.148 C 185.013 170.132,171.811 178.022,159.800 182.827 C 157.878 183.596,154.128 184.475,149.500 185.242 C 144.014 186.151,137.939 184.560,133.900 181.154 C 131.202 178.879,131.547 179.894,134.500 182.919 C 141.244 189.825,149.168 191.118,162.000 187.404 C 166.559 186.085,178.144 180.680,182.200 177.980 C 183.080 177.395,184.973 176.206,186.406 175.340 C 188.718 173.942,190.898 172.390,199.200 166.232 C 200.410 165.334,201.641 164.372,201.935 164.094 C 202.229 163.816,203.129 163.097,203.935 162.496 C 204.741 161.896,205.490 161.311,205.600 161.197 C 205.710 161.083,206.788 160.181,207.996 159.195 C 214.440 153.929,221.354 147.696,227.924 141.228 C 235.024 134.239,234.071 134.671,236.751 137.228 C 239.370 139.726,239.137 140.076,239.597 132.961 C 240.319 121.816,240.204 120.397,238.600 120.683 M253.800 140.009 C 249.546 140.830,247.411 141.234,245.300 141.618 C 244.035 141.847,242.100 142.209,241.000 142.422 C 239.900 142.634,238.325 142.920,237.500 143.057 C 235.522 143.385,235.581 143.581,238.400 146.033 C 239.720 147.181,240.800 148.377,240.800 148.690 C 240.800 150.302,232.563 159.176,226.600 163.989 C 224.840 165.409,223.310 166.668,223.200 166.786 C 219.975 170.243,199.746 182.281,192.000 185.352 C 191.010 185.745,189.660 186.301,189.000 186.589 C 187.379 187.296,184.466 188.409,183.000 188.880 C 181.297 189.428,177.678 190.449,174.400 191.306 C 154.533 196.498,138.472 192.861,129.339 181.100 C 128.121 179.532,127.868 179.741,128.854 181.500 C 133.490 189.779,141.486 195.838,150.600 197.978 C 151.700 198.236,153.267 198.622,154.083 198.835 C 156.101 199.362,167.041 199.329,170.112 198.787 C 179.030 197.212,186.642 195.144,193.600 192.404 C 199.032 190.265,210.275 184.737,216.400 181.193 C 219.150 179.602,222.006 177.954,222.747 177.531 C 228.609 174.180,239.679 166.013,246.064 160.328 C 249.801 157.001,249.633 157.004,252.800 160.200 C 255.893 163.321,256.000 163.341,256.000 160.816 C 256.000 159.724,256.171 157.069,256.380 154.916 C 256.589 152.762,256.849 148.435,256.958 145.300 C 257.182 138.855,257.450 139.304,253.800 140.009 M276.306 229.573 C 273.385 230.520,271.240 232.652,270.177 235.665 C 269.150 238.577,269.349 264.899,270.420 267.761 C 271.886 271.679,274.990 273.639,279.811 273.689 C 282.604 273.717,282.826 273.794,286.025 275.839 C 289.849 278.284,289.456 278.318,291.000 275.412 L 292.200 273.153 291.378 272.476 C 290.926 272.104,290.138 271.522,289.625 271.182 C 288.702 270.570,288.700 270.553,289.409 269.182 C 291.004 266.099,291.191 264.242,291.191 251.400 C 291.191 235.107,290.604 232.864,285.609 230.039 C 284.437 229.377,277.917 229.050,276.306 229.573 M281.991 238.383 C 282.586 239.496,282.540 263.256,281.939 264.573 C 281.388 265.784,280.320 266.200,279.244 265.624 C 278.100 265.012,277.930 262.680,278.074 249.664 L 278.200 238.328 279.137 237.570 C 280.187 236.720,281.265 237.027,281.991 238.383 " stroke="none" fill="#fa944d" fill-rule="evenodd"></path><path id="path4" d="M219.066 90.667 C 218.729 91.004,218.733 120.194,219.070 121.536 C 219.263 122.307,219.491 122.432,220.353 122.240 C 220.929 122.112,222.300 121.807,223.400 121.563 C 224.500 121.319,226.030 120.976,226.800 120.800 C 227.570 120.624,229.190 120.264,230.400 120.000 C 231.610 119.736,233.320 119.354,234.200 119.151 C 235.080 118.949,236.468 118.674,237.284 118.541 C 240.088 118.084,240.023 118.446,239.906 103.762 L 239.800 90.600 229.573 90.493 C 223.949 90.435,219.220 90.513,219.066 90.667 M239.200 103.976 C 239.200 111.223,239.047 117.247,238.861 117.362 C 238.548 117.556,226.047 120.443,222.073 121.240 C 221.124 121.430,220.179 121.690,219.973 121.817 C 219.745 121.958,219.600 115.992,219.600 106.424 L 219.600 90.800 229.400 90.800 L 239.200 90.800 239.200 103.976 M192.500 104.661 C 191.911 104.903,191.752 160.400,192.340 160.400 C 193.398 160.400,200.539 154.271,207.904 147.043 L 212.808 142.230 212.704 123.415 L 212.600 104.600 202.800 104.528 C 197.410 104.488,192.775 104.548,192.500 104.661 M212.400 123.547 L 212.400 141.894 206.694 147.447 C 201.668 152.338,194.737 158.498,193.300 159.351 C 192.902 159.587,192.800 154.094,192.800 132.424 L 192.800 105.200 202.600 105.200 L 212.400 105.200 212.400 123.547 M165.200 151.200 C 165.200 180.947,164.865 178.381,168.513 176.556 C 171.953 174.836,180.439 169.688,183.312 167.578 L 186.000 165.604 186.000 145.202 L 186.000 124.800 175.600 124.800 L 165.200 124.800 165.200 151.200 M219.050 125.708 C 218.454 127.931,218.873 134.400,219.613 134.400 C 220.094 134.400,223.600 129.606,223.600 128.948 C 223.600 128.428,221.727 126.543,219.983 125.308 C 219.393 124.890,219.253 124.950,219.050 125.708 M185.600 145.171 L 185.600 165.142 184.226 166.271 C 179.730 169.965,166.217 177.541,165.846 176.576 C 165.711 176.223,165.600 164.519,165.600 150.567 L 165.600 125.200 175.600 125.200 L 185.600 125.200 185.600 145.171 M221.744 127.397 L 223.289 128.762 222.443 130.081 C 221.978 130.806,221.148 131.940,220.600 132.600 L 219.604 133.800 219.602 129.900 C 219.600 125.522,219.609 125.511,221.744 127.397 M239.720 131.200 C 239.720 132.410,239.795 132.905,239.887 132.300 C 239.978 131.695,239.978 130.705,239.887 130.100 C 239.795 129.495,239.720 129.990,239.720 131.200 M239.301 137.800 C 239.305 138.680,239.387 138.993,239.483 138.495 C 239.579 137.998,239.575 137.278,239.475 136.895 C 239.375 136.513,239.296 136.920,239.301 137.800 M232.401 140.198 C 231.128 141.554,231.588 141.820,234.198 141.236 C 236.478 140.725,236.734 140.494,235.920 139.680 C 235.118 138.878,233.405 139.130,232.401 140.198 M235.372 139.955 C 235.585 140.299,234.361 140.783,233.251 140.795 C 232.808 140.799,232.798 140.684,233.200 140.200 C 233.747 139.540,235.027 139.396,235.372 139.955 M224.981 144.100 L 223.400 145.800 225.100 144.219 C 226.681 142.748,226.984 142.400,226.681 142.400 C 226.616 142.400,225.851 143.165,224.981 144.100 M224.600 147.756 L 219.000 153.103 218.867 158.413 C 218.729 163.909,218.978 166.543,219.614 166.326 C 222.020 165.505,237.600 150.736,237.600 149.277 C 237.600 148.532,231.296 142.395,230.541 142.404 C 230.354 142.406,227.680 144.815,224.600 147.756 M236.549 148.341 C 237.288 149.160,237.276 149.197,235.678 151.086 C 232.168 155.232,220.848 165.600,219.831 165.600 C 219.704 165.600,219.618 162.765,219.639 159.300 L 219.678 153.000 225.139 147.948 L 230.600 142.897 233.200 145.203 C 234.630 146.472,236.137 147.884,236.549 148.341 M256.909 144.400 C 256.909 145.390,256.987 145.795,257.082 145.300 C 257.178 144.805,257.178 143.995,257.082 143.500 C 256.987 143.005,256.909 143.410,256.909 144.400 M206.581 151.300 L 205.000 153.000 206.700 151.419 C 208.281 149.948,208.584 149.600,208.281 149.600 C 208.216 149.600,207.451 150.365,206.581 151.300 M217.775 150.900 L 216.600 152.200 217.900 151.025 C 218.615 150.379,219.200 149.794,219.200 149.725 C 219.200 149.416,218.870 149.688,217.775 150.900 M233.186 157.900 L 231.000 160.200 233.300 158.014 C 234.565 156.811,235.600 155.776,235.600 155.714 C 235.600 155.417,235.218 155.763,233.186 157.900 M247.775 158.900 L 246.600 160.200 247.900 159.025 C 248.615 158.379,249.200 157.794,249.200 157.725 C 249.200 157.416,248.870 157.688,247.775 158.900 M209.568 161.116 C 205.243 164.767,204.144 165.629,198.118 170.094 L 192.037 174.600 192.018 178.500 C 192.003 181.801,192.097 182.400,192.634 182.400 C 193.297 182.400,199.955 179.097,203.400 177.058 C 204.500 176.407,205.762 175.678,206.206 175.438 C 206.649 175.197,208.314 174.194,209.906 173.208 L 212.800 171.416 212.800 165.308 C 212.800 158.267,212.856 158.340,209.568 161.116 M212.400 165.349 L 212.400 171.097 207.700 173.901 C 202.123 177.227,193.926 181.600,193.267 181.600 C 192.948 181.600,192.800 180.529,192.800 178.217 L 192.800 174.835 197.464 171.317 C 200.029 169.383,204.394 165.967,207.164 163.728 C 209.934 161.488,212.245 159.643,212.300 159.628 C 212.355 159.612,212.400 162.187,212.400 165.349 M236.400 171.245 C 233.464 173.406,223.678 180.000,223.406 180.000 C 222.724 180.000,219.211 182.729,219.028 183.400 C 218.680 184.680,218.779 211.348,219.134 211.907 C 219.383 212.299,221.757 212.390,229.628 212.307 L 239.800 212.200 239.904 190.900 C 240.022 166.595,240.334 168.349,236.400 171.245 M239.017 211.500 C 238.871 211.881,236.534 212.000,229.213 212.000 L 219.600 212.000 219.600 197.488 L 219.600 182.975 224.500 179.916 C 227.195 178.233,231.560 175.313,234.200 173.427 L 239.000 169.998 239.104 190.499 C 239.161 201.775,239.122 211.225,239.017 211.500 M131.111 178.774 C 131.482 179.420,131.866 179.867,131.965 179.769 C 132.064 179.670,132.697 180.084,133.372 180.690 C 134.048 181.295,133.707 180.848,132.615 179.695 C 130.311 177.264,130.208 177.200,131.111 178.774 M127.200 178.681 C 127.200 179.143,128.335 180.209,128.558 179.957 C 128.634 179.871,128.360 179.454,127.948 179.030 C 127.537 178.607,127.200 178.449,127.200 178.681 M182.000 180.861 C 179.063 182.685,171.789 186.295,168.238 187.690 C 164.811 189.038,164.032 191.008,167.126 190.504 C 168.126 190.342,173.091 189.345,175.075 188.909 C 175.557 188.803,178.167 187.961,180.875 187.039 L 185.800 185.361 185.917 182.281 C 186.058 178.547,185.849 178.471,182.000 180.861 M185.594 181.900 C 185.586 184.961,185.717 184.848,180.000 186.700 C 168.458 190.437,160.457 191.258,169.270 187.801 C 173.002 186.336,178.225 183.731,182.000 181.452 C 185.760 179.181,185.601 179.162,185.594 181.900 M133.600 182.525 C 133.600 182.594,134.185 183.179,134.900 183.825 L 136.200 185.000 135.025 183.700 C 133.930 182.488,133.600 182.216,133.600 182.525 M144.500 185.476 C 144.885 185.576,145.515 185.576,145.900 185.476 C 146.285 185.375,145.970 185.293,145.200 185.293 C 144.430 185.293,144.115 185.375,144.500 185.476 M207.778 188.551 C 203.879 190.537,202.357 191.242,199.000 192.620 C 197.291 193.321,195.659 194.020,193.392 195.023 L 191.984 195.645 192.092 203.923 L 192.200 212.200 202.500 212.307 L 212.800 212.414 212.800 199.407 C 212.800 189.241,212.691 186.411,212.300 186.451 C 212.025 186.478,209.990 187.423,207.778 188.551 M212.400 199.407 L 212.400 212.014 202.700 211.907 L 193.000 211.800 192.903 203.800 L 192.806 195.800 198.903 193.234 C 203.560 191.274,210.024 188.198,212.300 186.859 C 212.355 186.826,212.400 192.473,212.400 199.407 M183.200 198.462 C 178.184 199.824,169.972 201.441,166.800 201.690 L 165.400 201.800 165.289 207.300 L 165.177 212.800 175.589 212.800 L 186.000 212.800 186.000 205.400 C 186.000 197.168,186.194 197.649,183.200 198.462 M185.600 205.624 L 185.600 212.400 175.600 212.400 L 165.600 212.400 165.600 207.833 C 165.600 202.024,165.610 202.000,168.022 202.000 C 170.034 202.000,177.341 200.600,182.200 199.284 C 185.841 198.298,185.600 197.850,185.600 205.624 M159.505 199.483 C 160.002 199.579,160.722 199.575,161.105 199.475 C 161.487 199.375,161.080 199.296,160.200 199.301 C 159.320 199.305,159.007 199.387,159.505 199.483 M162.500 199.476 C 162.885 199.576,163.515 199.576,163.900 199.476 C 164.285 199.375,163.970 199.293,163.200 199.293 C 162.430 199.293,162.115 199.375,162.500 199.476 M219.000 224.611 C 217.460 225.356,215.075 226.468,213.701 227.082 C 212.326 227.697,211.201 228.341,211.201 228.514 C 211.200 228.687,211.515 228.660,211.900 228.454 C 213.111 227.808,221.758 223.864,222.800 223.483 C 223.219 223.329,223.158 223.262,222.600 223.261 C 222.160 223.259,220.540 223.867,219.000 224.611 M257.281 227.141 C 256.913 227.375,256.797 228.334,256.881 230.435 L 257.000 233.400 261.700 233.513 L 266.400 233.625 266.400 230.455 C 266.400 227.934,266.271 227.236,265.767 227.043 C 264.824 226.681,257.880 226.761,257.281 227.141 M265.800 230.200 L 265.800 233.000 261.833 233.115 C 257.250 233.249,257.215 233.225,257.206 229.967 C 257.198 227.086,257.081 227.155,261.780 227.287 L 265.800 227.400 265.800 230.200 M114.539 229.106 C 114.285 229.268,115.936 229.402,118.208 229.405 C 120.480 229.407,122.128 229.275,121.869 229.111 C 121.263 228.725,115.143 228.721,114.539 229.106 M279.107 229.090 C 279.826 229.179,280.906 229.177,281.507 229.086 C 282.108 228.995,281.520 228.922,280.200 228.924 C 278.880 228.926,278.388 229.001,279.107 229.090 M133.515 233.087 L 133.400 237.000 132.300 237.127 C 131.695 237.196,131.200 237.396,131.200 237.571 C 131.200 238.024,133.341 237.569,133.694 237.040 C 133.856 236.798,133.991 235.019,133.994 233.086 L 134.000 229.572 138.100 229.686 L 142.200 229.800 142.314 233.700 L 142.429 237.600 143.614 237.600 L 144.800 237.600 144.800 240.800 L 144.800 244.000 143.600 244.000 L 142.400 244.000 142.400 255.600 C 142.400 266.393,142.449 267.198,143.100 267.168 C 143.518 267.150,143.599 267.056,143.300 266.935 C 142.917 266.780,142.800 264.131,142.800 255.593 L 142.800 244.453 143.900 244.327 L 145.000 244.200 145.000 240.818 C 145.000 237.540,144.969 237.429,144.000 237.201 C 143.039 236.976,142.992 236.819,142.800 233.183 L 142.600 229.400 138.115 229.287 L 133.629 229.174 133.515 233.087 M191.809 230.100 C 191.695 230.595,191.557 232.342,191.501 233.983 C 191.406 236.800,191.344 236.980,190.400 237.201 C 189.431 237.429,189.400 237.540,189.400 240.818 L 189.400 244.200 190.494 244.326 L 191.588 244.452 191.700 256.526 L 191.812 268.600 191.906 256.327 L 192.000 244.053 190.900 243.927 C 189.817 243.802,189.798 243.751,189.683 240.700 L 189.566 237.600 190.769 237.600 L 191.971 237.600 192.086 233.700 L 192.200 229.800 196.300 229.686 L 200.400 229.572 200.405 232.686 C 200.413 236.805,200.634 237.526,201.941 237.677 C 203.636 237.874,203.598 243.731,201.900 243.927 C 201.295 243.996,200.800 244.196,200.800 244.371 C 200.800 244.824,202.941 244.369,203.294 243.840 C 204.330 242.287,203.492 237.200,202.200 237.200 C 200.991 237.200,200.800 236.568,200.800 232.567 L 200.800 229.200 196.408 229.200 C 192.180 229.200,192.007 229.234,191.809 230.100 M111.755 230.362 C 109.958 231.458,107.972 234.623,108.019 236.319 C 108.029 236.693,108.381 236.120,108.801 235.045 C 109.645 232.883,110.783 231.477,112.600 230.348 C 113.260 229.938,113.620 229.603,113.400 229.603 C 113.180 229.603,112.440 229.945,111.755 230.362 M124.271 230.609 C 126.111 231.712,127.353 233.450,128.179 236.078 C 128.539 237.222,128.734 237.497,128.760 236.896 C 128.861 234.603,125.059 229.593,123.228 229.604 C 122.883 229.606,123.352 230.058,124.271 230.609 M219.200 232.400 C 218.225 232.712,218.230 232.721,219.400 232.732 C 220.060 232.738,220.960 232.589,221.400 232.400 C 222.494 231.930,220.667 231.930,219.200 232.400 M215.200 233.200 L 214.200 233.520 215.200 233.520 C 215.750 233.520,216.650 233.376,217.200 233.200 L 218.200 232.880 217.200 232.880 C 216.650 232.880,215.750 233.024,215.200 233.200 M211.200 234.000 C 211.200 234.458,211.770 234.458,213.200 234.000 C 214.092 233.714,214.039 233.675,212.700 233.640 C 211.875 233.618,211.200 233.780,211.200 234.000 M160.141 235.817 C 159.449 236.120,158.528 236.819,158.095 237.371 C 157.661 237.922,157.192 238.259,157.053 238.120 C 156.914 237.981,156.800 238.167,156.800 238.533 C 156.800 239.488,157.382 239.355,157.964 238.268 C 158.583 237.110,160.248 236.099,161.813 235.929 L 163.000 235.800 163.000 239.182 C 163.000 242.444,162.964 242.574,162.000 242.860 C 161.069 243.137,161.082 243.152,162.200 243.078 L 163.400 243.000 163.519 240.005 C 163.716 235.067,163.230 234.463,160.141 235.817 M171.730 235.752 C 168.151 236.921,165.536 239.628,165.641 242.054 C 165.673 242.808,165.767 242.716,166.104 241.600 C 168.551 233.488,184.185 233.775,186.393 241.973 C 186.669 242.998,186.780 248.855,186.709 258.578 C 186.649 266.840,186.735 273.600,186.900 273.600 C 187.409 273.600,187.261 243.102,186.745 241.560 C 185.105 236.662,177.705 233.800,171.730 235.752 M213.803 235.567 C 213.345 235.746,214.788 235.878,217.200 235.878 C 219.612 235.878,221.055 235.746,220.597 235.567 C 220.158 235.396,218.630 235.256,217.200 235.256 C 215.770 235.256,214.242 235.396,213.803 235.567 M235.637 235.754 C 233.255 236.615,231.115 240.069,231.244 242.846 C 231.269 243.379,231.512 242.884,231.795 241.726 C 233.207 235.952,238.953 233.644,242.732 237.333 C 244.592 239.150,244.800 239.155,244.800 237.386 L 244.800 235.973 249.100 236.086 L 253.400 236.200 253.607 252.400 L 253.814 268.600 253.907 252.549 C 253.984 239.217,253.905 236.419,253.442 236.035 C 252.307 235.093,244.697 235.648,244.169 236.711 C 243.750 237.552,243.673 237.570,243.158 236.949 C 241.807 235.320,238.353 234.772,235.637 235.754 M147.867 235.867 C 147.496 236.237,147.529 273.600,147.900 273.600 C 148.065 273.600,148.200 265.185,148.200 254.900 L 148.200 236.200 152.462 236.200 C 154.807 236.200,156.641 236.065,156.539 235.900 C 156.309 235.529,148.235 235.498,147.867 235.867 M257.300 235.865 C 256.738 236.092,256.539 273.600,257.100 273.600 C 257.265 273.600,257.400 265.185,257.400 254.900 L 257.400 236.200 261.600 236.200 L 265.800 236.200 265.800 254.900 C 265.800 265.185,265.935 273.600,266.100 273.600 C 266.777 273.600,266.447 236.104,265.767 235.843 C 265.018 235.555,258.022 235.574,257.300 235.865 M210.442 236.831 C 208.494 238.018,206.400 240.510,206.400 241.640 C 206.400 241.924,206.909 241.356,207.532 240.378 C 208.843 238.318,209.355 237.851,211.459 236.801 C 212.306 236.378,212.730 236.025,212.400 236.017 C 212.070 236.009,211.189 236.376,210.442 236.831 M223.117 236.872 C 225.062 237.815,226.871 240.179,227.501 242.600 C 227.771 243.639,227.932 243.880,227.959 243.287 C 228.084 240.509,224.279 235.929,221.920 236.020 C 221.634 236.031,222.173 236.414,223.117 236.872 M116.889 237.423 C 114.682 238.969,115.774 241.040,122.169 247.437 C 125.091 250.360,126.975 252.613,127.688 254.037 C 128.283 255.227,128.777 255.968,128.785 255.684 C 128.825 254.292,126.644 251.375,122.007 246.622 C 116.764 241.247,115.702 239.523,116.814 238.184 C 117.479 237.382,119.073 237.450,119.568 238.300 C 119.851 238.786,119.979 238.830,119.988 238.444 C 120.018 237.088,118.215 236.494,116.889 237.423 M107.522 238.900 C 107.432 239.835,107.483 241.230,107.634 242.000 C 107.838 243.042,107.920 242.608,107.954 240.300 C 108.004 236.923,107.780 236.197,107.522 238.900 M128.870 239.725 L 128.800 241.650 124.399 241.525 C 121.589 241.445,120.046 241.545,120.132 241.800 C 120.206 242.024,122.151 242.250,124.540 242.314 C 129.349 242.441,129.353 242.439,129.095 239.546 L 128.940 237.800 128.870 239.725 M278.178 251.200 C 278.178 257.910,278.232 260.655,278.299 257.300 C 278.366 253.945,278.366 248.455,278.299 245.100 C 278.232 241.745,278.178 244.490,278.178 251.200 M269.377 251.200 C 269.377 257.690,269.432 260.345,269.499 257.100 C 269.566 253.855,269.566 248.545,269.499 245.300 C 269.432 242.055,269.377 244.710,269.377 251.200 M215.776 242.567 C 215.115 243.050,214.980 243.732,214.863 247.167 L 214.725 251.200 216.963 251.200 L 219.200 251.200 219.200 247.400 C 219.200 242.582,218.026 240.924,215.776 242.567 M205.852 243.300 C 205.521 244.534,205.590 264.433,205.928 265.285 C 206.078 265.662,206.200 260.668,206.200 254.186 C 206.200 247.704,206.176 242.400,206.147 242.400 C 206.117 242.400,205.985 242.805,205.852 243.300 M218.177 243.289 C 218.619 243.920,218.800 245.140,218.800 247.489 L 218.800 250.800 217.000 250.800 L 215.200 250.800 215.200 247.489 C 215.200 244.090,215.798 242.400,217.000 242.400 C 217.305 242.400,217.835 242.800,218.177 243.289 M240.464 243.419 C 239.714 245.064,239.835 260.121,240.610 261.620 C 241.224 262.806,242.420 263.156,243.507 262.466 C 245.811 261.004,245.226 243.225,242.850 242.474 C 242.548 242.378,242.683 242.683,243.150 243.150 C 244.167 244.167,244.497 260.943,243.520 261.920 C 242.621 262.819,241.241 262.491,240.908 261.300 C 240.163 258.638,240.548 243.573,241.376 242.968 C 241.976 242.530,242.013 242.400,241.541 242.400 C 241.204 242.400,240.720 242.858,240.464 243.419 M157.900 243.665 C 157.295 243.886,156.803 244.367,156.806 244.733 C 156.811 245.309,156.864 245.318,157.191 244.800 C 157.399 244.470,158.342 243.993,159.285 243.739 C 160.430 243.432,160.667 243.276,160.000 243.271 C 159.450 243.267,158.505 243.444,157.900 243.665 M165.359 245.000 L 165.400 247.000 169.900 247.113 L 174.400 247.226 174.347 245.513 L 174.295 243.800 174.047 245.200 L 173.800 246.600 169.722 246.714 L 165.645 246.827 165.482 244.914 L 165.318 243.000 165.359 245.000 M108.023 243.916 C 107.962 245.272,110.094 248.207,114.190 252.407 C 119.924 258.285,121.317 261.190,120.021 264.560 C 119.627 265.583,119.647 265.659,120.187 265.211 C 120.938 264.587,120.999 261.760,120.310 259.446 C 119.940 258.203,118.610 256.547,114.878 252.680 C 111.462 249.140,109.645 246.918,108.992 245.480 C 108.472 244.336,108.036 243.632,108.023 243.916 M131.200 244.043 C 131.200 244.210,131.695 244.404,132.300 244.473 L 133.400 244.600 133.600 257.800 C 133.747 267.475,133.937 271.239,134.312 271.896 C 135.388 273.780,139.431 274.840,142.600 274.070 C 144.017 273.725,143.777 273.676,140.506 273.640 C 137.018 273.602,136.740 273.535,135.506 272.433 L 134.200 271.267 134.098 258.533 C 134.041 251.530,133.908 245.416,133.802 244.946 C 133.617 244.131,131.200 243.292,131.200 244.043 M177.647 246.453 L 177.600 249.106 174.117 250.239 C 167.923 252.254,164.737 255.527,164.839 259.772 C 164.876 261.300,164.908 261.253,165.355 259.000 C 166.257 254.455,167.934 252.824,173.648 250.936 C 178.317 249.393,178.911 248.582,178.000 245.000 C 177.762 244.067,177.684 244.389,177.647 246.453 M200.574 255.400 C 200.575 261.120,200.631 263.404,200.699 260.476 C 200.768 257.548,200.767 252.868,200.699 250.076 C 200.630 247.284,200.574 249.680,200.574 255.400 M228.151 249.600 C 228.151 252.130,228.216 253.165,228.296 251.900 C 228.375 250.635,228.375 248.565,228.296 247.300 C 228.216 246.035,228.151 247.070,228.151 249.600 M175.711 254.696 C 173.839 256.327,172.845 262.312,174.000 265.000 C 174.221 265.514,174.354 264.200,174.372 261.331 C 174.398 257.126,174.461 256.788,175.436 255.631 C 177.367 253.335,177.600 253.802,177.600 259.971 C 177.600 266.481,177.207 267.471,175.074 266.335 C 174.284 265.914,174.253 265.933,174.749 266.535 C 176.876 269.113,178.047 266.541,177.911 259.586 C 177.789 253.317,177.650 253.008,175.711 254.696 M222.200 255.097 C 214.051 255.239,214.784 254.697,214.886 260.508 L 214.972 265.400 215.099 260.700 L 215.225 256.000 221.389 256.000 C 225.323 256.000,227.648 255.846,227.816 255.573 C 228.187 254.974,228.379 254.990,222.200 255.097 M128.979 261.311 C 128.969 264.000,129.086 265.750,129.240 265.200 C 129.603 263.904,129.625 258.005,129.271 257.111 C 129.120 256.732,128.989 258.622,128.979 261.311 M107.392 258.036 C 107.240 258.730,107.269 260.670,107.457 262.349 L 107.799 265.400 107.999 261.400 L 108.200 257.400 112.000 257.400 L 115.800 257.400 116.037 260.800 C 116.337 265.103,117.652 267.281,119.085 265.848 C 119.222 265.712,118.954 265.600,118.490 265.600 C 117.239 265.600,117.020 264.977,116.800 260.800 L 116.600 257.000 112.135 256.887 L 107.669 256.774 107.392 258.036 M219.043 259.433 C 218.909 259.781,218.800 261.298,218.800 262.804 C 218.800 266.417,217.679 267.720,215.931 266.138 C 215.131 265.414,214.903 265.943,215.680 266.720 C 217.491 268.531,219.131 266.651,219.282 262.589 L 219.400 259.400 223.600 259.400 L 227.800 259.400 228.037 261.400 L 228.274 263.400 228.337 261.733 C 228.447 258.809,228.433 258.800,223.600 258.800 C 220.035 258.800,219.243 258.910,219.043 259.433 M231.246 262.600 C 231.227 263.260,231.387 264.070,231.600 264.400 C 232.090 265.158,232.090 263.930,231.600 262.400 C 231.286 261.420,231.279 261.424,231.246 262.600 M164.806 266.033 C 164.809 267.005,164.994 268.070,165.216 268.400 C 165.497 268.818,165.539 268.333,165.355 266.800 C 165.025 264.047,164.798 263.729,164.806 266.033 M227.453 265.741 C 227.286 266.588,227.241 267.375,227.355 267.488 C 227.658 267.791,228.097 265.785,227.914 264.932 C 227.820 264.490,227.637 264.811,227.453 265.741 M232.000 265.546 C 232.000 266.918,235.548 269.624,237.280 269.573 C 237.882 269.556,237.597 269.358,236.457 269.003 C 234.624 268.431,232.800 267.010,232.800 266.154 C 232.800 265.875,232.620 265.536,232.400 265.400 C 232.180 265.264,232.000 265.330,232.000 265.546 M108.021 266.451 C 107.934 269.151,112.067 273.704,114.484 273.572 C 114.768 273.556,114.280 273.220,113.400 272.826 C 111.193 271.835,109.766 270.283,108.833 267.858 C 108.398 266.726,108.032 266.093,108.021 266.451 M128.083 267.882 C 127.460 269.961,125.960 271.789,124.052 272.798 C 123.253 273.219,122.829 273.573,123.108 273.582 C 125.073 273.651,129.097 268.833,128.717 266.868 C 128.646 266.500,128.361 266.957,128.083 267.882 M206.428 266.916 C 206.337 269.221,210.301 273.643,212.400 273.579 C 212.730 273.568,212.226 273.185,211.279 272.726 C 209.341 271.786,207.877 270.076,207.029 267.764 C 206.714 266.904,206.444 266.522,206.428 266.916 M243.302 267.583 C 242.900 268.014,241.948 268.637,241.186 268.968 C 240.144 269.419,240.010 269.573,240.646 269.584 C 241.111 269.593,241.950 269.240,242.509 268.800 C 243.777 267.803,244.000 267.800,244.000 268.781 C 244.000 272.086,240.793 273.248,236.166 271.622 C 233.439 270.663,233.303 270.719,231.721 273.442 C 230.162 276.127,230.276 276.483,233.139 277.890 C 235.523 279.060,243.731 279.729,245.877 278.928 C 246.401 278.732,244.471 278.600,241.077 278.600 C 232.757 278.600,230.156 277.244,232.000 273.867 C 233.507 271.107,233.604 271.059,235.763 271.984 C 239.891 273.753,243.390 272.812,244.329 269.681 C 245.180 266.839,244.772 266.005,243.302 267.583 M144.600 270.400 C 144.600 272.160,144.735 273.600,144.900 273.600 C 145.065 273.600,145.200 272.160,145.200 270.400 C 145.200 268.640,145.065 267.200,144.900 267.200 C 144.735 267.200,144.600 268.640,144.600 270.400 M203.135 269.854 C 203.220 271.473,203.090 272.651,202.786 273.017 C 202.501 273.361,202.469 273.600,202.708 273.600 C 203.537 273.600,204.082 267.947,203.300 267.461 C 203.135 267.358,203.061 268.435,203.135 269.854 M225.800 269.935 C 225.038 271.093,223.943 272.090,222.800 272.668 C 221.810 273.168,221.234 273.583,221.520 273.589 C 222.922 273.619,225.728 271.315,226.784 269.266 C 227.616 267.651,227.051 268.035,225.800 269.935 M165.618 269.646 C 165.608 270.001,166.001 270.811,166.491 271.446 C 169.083 274.804,173.449 275.263,176.467 272.493 L 177.533 271.514 177.667 272.426 C 177.884 273.911,178.687 273.800,178.503 272.311 C 178.223 270.045,178.089 270.016,176.276 271.829 C 173.268 274.837,168.371 274.184,166.436 270.517 C 165.996 269.683,165.627 269.291,165.618 269.646 M192.030 270.269 C 191.997 271.222,193.794 273.605,194.536 273.591 C 194.791 273.586,194.556 273.241,194.013 272.824 C 193.470 272.407,192.809 271.466,192.543 270.733 C 192.173 269.710,192.054 269.602,192.030 270.269 M253.252 270.200 C 253.036 273.246,251.127 276.183,248.440 277.604 C 247.648 278.022,247.288 278.373,247.640 278.382 C 250.117 278.451,254.013 273.066,253.483 270.307 C 253.333 269.526,253.301 269.511,253.252 270.200 M116.000 274.000 C 116.550 274.176,117.810 274.320,118.800 274.320 C 119.790 274.320,121.050 274.176,121.600 274.000 C 122.250 273.792,121.269 273.680,118.800 273.680 C 116.331 273.680,115.350 273.792,116.000 274.000 M195.800 274.000 C 196.770 274.417,199.362 274.417,201.000 274.000 C 201.823 273.791,201.069 273.689,198.600 273.675 C 196.254 273.663,195.279 273.776,195.800 274.000 M214.000 274.000 C 214.550 274.176,215.900 274.320,217.000 274.320 C 218.100 274.320,219.450 274.176,220.000 274.000 C 220.642 273.794,219.569 273.680,217.000 273.680 C 214.431 273.680,213.358 273.794,214.000 274.000 M243.300 284.963 C 242.412 285.901,241.915 290.399,242.700 290.401 C 242.865 290.401,242.939 289.321,242.864 288.001 L 242.729 285.600 243.931 285.600 C 244.592 285.600,245.204 285.812,245.290 286.071 C 245.384 286.351,245.661 286.410,245.975 286.215 C 246.396 285.956,246.370 285.815,245.851 285.525 C 245.493 285.324,245.200 284.899,245.200 284.580 C 245.200 283.713,244.316 283.891,243.300 284.963 M111.705 285.700 C 111.050 286.534,109.867 290.000,110.143 290.276 C 110.285 290.418,110.862 290.288,111.425 289.986 C 112.235 289.553,112.611 289.539,113.219 289.919 C 114.226 290.548,115.340 290.536,115.087 289.900 C 114.977 289.625,114.565 288.590,114.171 287.600 C 113.244 285.269,112.496 284.693,111.705 285.700 M116.582 286.131 C 116.445 286.674,116.414 287.542,116.512 288.059 C 116.632 288.691,116.709 288.507,116.746 287.500 C 116.820 285.449,117.525 285.600,117.677 287.700 C 117.787 289.224,117.915 289.413,118.907 289.527 C 119.516 289.597,119.910 289.822,119.783 290.027 C 119.450 290.566,120.154 290.486,120.720 289.920 C 121.314 289.326,121.357 285.744,120.773 285.384 C 120.539 285.239,120.224 285.253,120.073 285.415 C 119.923 285.577,120.025 285.790,120.300 285.888 C 120.898 286.102,120.992 289.600,120.400 289.600 C 120.180 289.600,120.000 289.308,120.000 288.951 C 120.000 288.415,119.894 288.390,119.390 288.808 C 118.585 289.477,118.298 289.123,118.026 287.125 C 117.768 285.229,116.949 284.665,116.582 286.131 M122.967 285.653 C 122.814 285.902,122.983 286.271,123.344 286.473 C 123.799 286.727,124.000 287.386,124.000 288.620 C 124.000 290.133,124.120 290.400,124.800 290.400 C 125.484 290.400,125.600 290.133,125.600 288.563 C 125.600 287.062,125.746 286.687,126.400 286.516 C 126.840 286.401,127.200 286.167,127.200 285.996 C 127.200 285.174,123.451 284.870,122.967 285.653 M129.478 285.644 C 127.879 286.575,128.035 290.400,129.672 290.400 C 129.931 290.400,129.842 290.088,129.462 289.669 C 128.060 288.120,128.986 285.894,131.200 285.491 L 132.200 285.309 131.200 285.267 C 130.650 285.243,129.875 285.413,129.478 285.644 M135.875 285.458 C 135.209 286.125,135.579 290.401,136.300 290.368 C 136.718 290.350,136.799 290.256,136.500 290.135 C 135.908 289.896,135.801 286.000,136.386 286.000 C 137.154 286.000,137.647 287.536,137.139 288.349 C 136.751 288.971,136.782 289.239,137.301 289.758 C 138.039 290.496,139.200 290.614,139.200 289.951 C 139.200 289.635,139.372 289.645,139.782 289.985 C 140.103 290.251,140.553 290.353,140.782 290.211 C 141.295 289.894,141.341 285.735,140.836 285.422 C 140.298 285.090,139.200 285.608,139.200 286.194 C 139.200 287.427,138.077 287.668,137.532 286.552 C 136.976 285.410,136.342 284.991,135.875 285.458 M144.572 285.506 C 144.337 285.668,143.823 286.610,143.429 287.600 C 143.035 288.590,142.623 289.625,142.513 289.900 C 142.260 290.536,143.374 290.548,144.381 289.919 C 144.989 289.539,145.365 289.553,146.175 289.986 C 147.621 290.760,147.822 290.303,147.002 288.109 C 145.971 285.355,145.511 284.861,144.572 285.506 M149.367 285.653 C 149.214 285.902,149.383 286.271,149.744 286.473 C 150.199 286.727,150.400 287.386,150.400 288.620 C 150.400 290.133,150.520 290.400,151.200 290.400 C 151.884 290.400,152.000 290.133,152.000 288.563 C 152.000 287.062,152.146 286.687,152.800 286.516 C 153.240 286.401,153.600 286.167,153.600 285.996 C 153.600 285.174,149.851 284.870,149.367 285.653 M154.987 286.110 C 154.538 287.897,154.935 290.181,155.720 290.330 C 156.361 290.451,156.427 290.192,156.320 287.965 C 156.196 285.376,155.436 284.319,154.987 286.110 M158.480 285.680 C 157.764 286.396,157.898 287.383,158.823 288.221 L 159.646 288.965 158.823 289.270 C 157.716 289.679,157.783 290.330,158.963 290.626 C 161.265 291.204,162.713 288.490,160.613 287.533 C 160.069 287.285,159.720 286.929,159.836 286.742 C 159.952 286.554,159.857 286.400,159.624 286.400 C 159.054 286.400,159.089 286.924,159.700 287.559 C 160.104 287.978,160.047 288.050,159.400 287.933 C 158.214 287.719,158.297 285.843,159.500 285.672 C 159.995 285.602,160.400 285.737,160.400 285.972 C 160.400 286.207,160.670 286.400,161.000 286.400 C 161.792 286.400,161.770 285.751,160.967 285.443 C 159.978 285.063,159.004 285.156,158.480 285.680 M163.700 285.465 C 163.379 285.594,163.200 286.514,163.200 288.033 C 163.200 289.660,163.356 290.400,163.700 290.401 C 164.060 290.401,164.162 289.727,164.064 288.001 L 163.929 285.600 165.131 285.600 C 165.792 285.600,166.414 285.825,166.512 286.100 C 166.610 286.375,166.823 286.477,166.985 286.327 C 167.876 285.501,165.291 284.823,163.700 285.465 M168.832 285.900 C 168.850 286.318,168.944 286.399,169.065 286.100 C 169.176 285.825,169.882 285.600,170.633 285.600 C 172.098 285.600,172.343 286.115,171.443 287.300 C 170.730 288.239,170.287 288.187,170.600 287.200 C 170.760 286.695,170.672 286.400,170.360 286.400 C 170.089 286.400,169.978 286.512,170.115 286.648 C 170.252 286.785,169.922 287.547,169.382 288.341 C 168.307 289.922,168.178 290.400,168.824 290.400 C 169.057 290.400,169.161 290.260,169.055 290.089 C 168.949 289.918,169.204 289.333,169.622 288.789 L 170.382 287.800 170.391 288.700 C 170.397 289.330,170.640 289.600,171.200 289.600 C 171.640 289.600,172.000 289.780,172.000 290.000 C 172.000 290.220,172.180 290.400,172.400 290.400 C 173.224 290.400,172.761 289.605,171.795 289.363 L 170.790 289.111 171.634 287.745 C 172.768 285.911,172.426 285.200,170.413 285.200 C 169.131 285.200,168.806 285.344,168.832 285.900 M182.300 285.632 C 181.915 285.856,181.600 286.239,181.600 286.482 C 181.600 286.725,181.929 286.626,182.331 286.262 C 184.003 284.749,186.584 286.042,186.330 288.265 C 186.234 289.099,185.828 289.586,184.800 290.099 C 184.030 290.484,183.637 290.799,183.926 290.799 C 185.503 290.801,186.785 289.505,186.794 287.900 C 186.806 285.782,184.253 284.494,182.300 285.632 M188.667 285.467 C 188.520 285.613,188.400 286.783,188.400 288.067 C 188.400 290.552,189.121 291.242,190.000 289.600 C 190.290 289.058,190.295 288.800,190.014 288.800 C 189.786 288.800,189.600 289.070,189.600 289.400 C 189.600 289.730,189.411 290.000,189.179 290.000 C 188.007 290.000,188.968 285.811,190.200 285.550 L 191.400 285.295 190.167 285.247 C 189.488 285.221,188.813 285.320,188.667 285.467 M194.167 285.653 C 194.014 285.902,194.183 286.271,194.544 286.473 C 194.999 286.727,195.200 287.386,195.200 288.620 C 195.200 290.133,195.320 290.400,196.000 290.400 C 196.684 290.400,196.800 290.133,196.800 288.563 C 196.800 287.062,196.946 286.687,197.600 286.516 C 198.040 286.401,198.400 286.167,198.400 285.996 C 198.400 285.174,194.651 284.870,194.167 285.653 M199.867 285.467 C 199.197 286.136,199.583 290.462,200.300 290.326 C 200.796 290.232,201.037 289.738,201.128 288.635 C 201.335 286.104,200.736 284.598,199.867 285.467 M203.075 285.458 C 202.409 286.125,202.779 290.401,203.500 290.368 C 203.918 290.350,203.999 290.256,203.700 290.135 C 203.108 289.896,203.001 286.000,203.586 286.000 C 204.354 286.000,204.847 287.536,204.339 288.349 C 203.951 288.971,203.982 289.239,204.501 289.758 C 205.239 290.496,206.400 290.614,206.400 289.951 C 206.400 289.635,206.572 289.645,206.982 289.985 C 207.303 290.251,207.753 290.353,207.982 290.211 C 208.495 289.894,208.541 285.735,208.036 285.422 C 207.498 285.090,206.400 285.608,206.400 286.194 C 206.400 287.427,205.277 287.668,204.732 286.552 C 204.176 285.410,203.542 284.991,203.075 285.458 M210.267 285.467 C 209.597 286.136,209.983 290.462,210.700 290.326 C 211.196 290.232,211.437 289.738,211.528 288.635 C 211.735 286.104,211.136 284.598,210.267 285.467 M213.680 285.680 C 212.964 286.396,213.098 287.383,214.023 288.221 L 214.846 288.965 214.023 289.270 C 212.916 289.679,212.983 290.330,214.163 290.626 C 216.465 291.204,217.913 288.490,215.813 287.533 C 215.269 287.285,214.920 286.929,215.036 286.742 C 215.152 286.554,215.057 286.400,214.824 286.400 C 214.254 286.400,214.289 286.924,214.900 287.559 C 215.304 287.978,215.247 288.050,214.600 287.933 C 213.414 287.719,213.497 285.843,214.700 285.672 C 215.195 285.602,215.600 285.737,215.600 285.972 C 215.600 286.207,215.870 286.400,216.200 286.400 C 216.992 286.400,216.970 285.751,216.167 285.443 C 215.178 285.063,214.204 285.156,213.680 285.680 M218.667 285.467 C 218.298 285.835,218.329 290.400,218.700 290.401 C 218.865 290.401,219.000 289.366,219.000 288.101 C 219.000 285.768,220.299 284.542,221.210 286.016 C 221.375 286.284,221.730 286.367,221.998 286.201 C 222.373 285.970,222.360 285.821,221.943 285.556 C 221.299 285.148,219.047 285.086,218.667 285.467 M223.784 285.627 C 223.639 285.861,223.653 286.176,223.815 286.327 C 223.977 286.477,224.190 286.375,224.288 286.100 C 224.470 285.590,226.465 285.399,226.915 285.848 C 227.052 285.985,226.722 286.747,226.182 287.541 C 224.992 289.292,224.964 289.600,226.000 289.600 C 226.440 289.600,226.800 289.780,226.800 290.000 C 226.800 290.220,226.980 290.400,227.200 290.400 C 227.933 290.400,227.612 289.528,226.800 289.316 C 225.809 289.057,225.810 289.002,226.828 287.355 C 227.284 286.618,227.543 285.831,227.405 285.607 C 227.071 285.067,224.120 285.083,223.784 285.627 M236.643 285.833 C 235.770 288.107,236.964 291.676,238.024 289.962 C 238.297 289.520,238.468 289.508,238.863 289.903 C 239.999 291.039,240.597 290.478,240.677 288.201 C 240.739 286.412,240.614 285.929,240.003 285.602 C 238.842 284.980,236.919 285.112,236.643 285.833 M247.867 285.467 C 247.408 285.925,247.576 289.416,248.080 289.920 C 248.646 290.486,249.350 290.566,249.017 290.027 C 248.890 289.822,249.284 289.597,249.893 289.527 C 250.885 289.413,251.013 289.224,251.123 287.700 C 251.275 285.598,251.896 285.472,252.109 287.500 L 252.266 289.000 252.327 287.600 C 252.360 286.830,252.231 285.952,252.039 285.649 C 251.497 284.794,250.801 285.508,250.794 286.924 C 250.785 288.749,250.245 289.502,249.430 288.825 C 248.901 288.386,248.800 288.406,248.800 288.951 C 248.800 289.308,248.620 289.600,248.400 289.600 C 248.180 289.600,248.000 288.790,248.000 287.800 C 248.000 286.810,248.180 286.000,248.400 286.000 C 248.620 286.000,248.800 285.820,248.800 285.600 C 248.800 285.145,248.265 285.068,247.867 285.467 M254.480 285.680 C 253.764 286.396,253.898 287.383,254.823 288.221 L 255.646 288.965 254.823 289.270 C 253.716 289.679,253.783 290.330,254.963 290.626 C 257.265 291.204,258.713 288.490,256.613 287.533 C 256.069 287.285,255.720 286.929,255.836 286.742 C 255.952 286.554,255.857 286.400,255.624 286.400 C 255.054 286.400,255.089 286.924,255.700 287.559 C 256.104 287.978,256.047 288.050,255.400 287.933 C 254.214 287.719,254.297 285.843,255.500 285.672 C 255.995 285.602,256.400 285.737,256.400 285.972 C 256.400 286.207,256.670 286.400,257.000 286.400 C 257.792 286.400,257.770 285.751,256.967 285.443 C 255.978 285.063,255.004 285.156,254.480 285.680 M259.700 285.456 C 258.750 285.856,259.128 287.770,260.300 288.497 L 261.400 289.179 260.300 289.189 C 259.511 289.197,259.209 289.398,259.232 289.900 C 259.250 290.318,259.344 290.399,259.465 290.100 C 259.576 289.825,260.114 289.600,260.660 289.600 C 261.490 289.600,261.610 289.461,261.385 288.753 C 261.191 288.140,261.266 287.955,261.658 288.084 C 262.855 288.479,262.509 289.947,261.125 290.346 C 260.396 290.556,260.127 290.744,260.526 290.764 C 262.784 290.876,263.482 288.924,261.755 287.324 C 260.627 286.278,259.939 286.362,260.830 287.436 C 261.306 288.010,261.275 288.073,260.587 287.941 C 259.376 287.707,259.514 285.840,260.755 285.665 C 261.280 285.591,261.879 285.771,262.085 286.065 C 262.385 286.492,262.428 286.479,262.300 286.000 C 262.136 285.391,260.612 285.072,259.700 285.456 M264.587 286.110 C 264.138 287.897,264.535 290.181,265.320 290.330 C 265.961 290.451,266.027 290.192,265.920 287.965 C 265.796 285.376,265.036 284.319,264.587 286.110 M268.080 285.680 C 267.364 286.396,267.498 287.383,268.423 288.221 L 269.246 288.965 268.423 289.270 C 267.316 289.679,267.383 290.330,268.563 290.626 C 270.865 291.204,272.313 288.490,270.213 287.533 C 269.669 287.285,269.320 286.929,269.436 286.742 C 269.552 286.554,269.457 286.400,269.224 286.400 C 268.654 286.400,268.689 286.924,269.300 287.559 C 269.704 287.978,269.647 288.050,269.000 287.933 C 267.814 287.719,267.897 285.843,269.100 285.672 C 269.595 285.602,270.000 285.737,270.000 285.972 C 270.000 286.207,270.270 286.400,270.600 286.400 C 271.392 286.400,271.370 285.751,270.567 285.443 C 269.578 285.063,268.604 285.156,268.080 285.680 M273.500 285.632 C 272.472 286.231,272.646 287.419,273.900 288.354 C 274.944 289.133,274.955 289.175,274.124 289.187 C 273.186 289.201,272.529 289.876,273.015 290.327 C 273.177 290.477,273.390 290.375,273.488 290.100 C 273.586 289.825,274.033 289.600,274.480 289.600 C 275.096 289.600,275.243 289.406,275.084 288.800 C 274.953 288.298,275.072 288.000,275.404 288.000 C 276.114 288.000,276.375 288.839,275.932 289.700 C 275.709 290.132,275.720 290.400,275.959 290.400 C 277.063 290.400,276.846 288.646,275.597 287.479 C 274.414 286.373,274.330 286.348,274.595 287.183 C 274.809 287.857,274.743 288.048,274.342 287.914 C 273.500 287.633,273.667 285.836,274.552 285.666 C 274.966 285.586,275.451 285.759,275.630 286.049 C 275.810 286.339,276.074 286.459,276.218 286.315 C 277.118 285.416,274.850 284.846,273.500 285.632 M278.667 285.467 C 278.298 285.835,278.329 290.400,278.700 290.401 C 278.865 290.401,279.000 289.366,279.000 288.101 C 279.000 285.768,280.299 284.542,281.210 286.016 C 281.375 286.284,281.730 286.367,281.998 286.201 C 282.373 285.970,282.360 285.821,281.943 285.556 C 281.299 285.148,279.047 285.086,278.667 285.467 M283.784 285.627 C 283.639 285.861,283.653 286.176,283.815 286.327 C 283.977 286.477,284.190 286.375,284.288 286.100 C 284.470 285.590,286.465 285.399,286.915 285.848 C 287.052 285.985,286.722 286.747,286.182 287.541 C 284.992 289.292,284.964 289.600,286.000 289.600 C 286.440 289.600,286.800 289.780,286.800 290.000 C 286.800 290.220,286.980 290.400,287.200 290.400 C 287.933 290.400,287.612 289.528,286.800 289.316 C 285.809 289.057,285.810 289.002,286.828 287.355 C 287.284 286.618,287.543 285.831,287.405 285.607 C 287.071 285.067,284.120 285.083,283.784 285.627 M113.783 287.811 C 114.169 288.822,114.384 289.749,114.261 289.872 C 113.882 290.251,112.800 288.903,112.800 288.052 C 112.800 287.609,112.620 287.136,112.400 287.000 C 112.168 286.857,112.000 287.246,112.000 287.927 C 112.000 288.573,111.726 289.330,111.390 289.608 C 110.651 290.222,110.059 289.781,110.727 289.113 C 110.987 288.853,111.200 288.400,111.200 288.106 C 111.200 287.358,112.425 285.568,112.784 285.790 C 112.948 285.891,113.397 286.801,113.783 287.811 M125.892 286.300 C 125.544 286.685,125.186 287.720,125.097 288.600 L 124.934 290.200 124.867 288.487 C 124.824 287.382,124.587 286.693,124.200 286.545 C 123.103 286.124,123.580 285.600,125.062 285.600 C 126.429 285.600,126.483 285.646,125.892 286.300 M140.800 288.024 C 140.800 289.111,140.620 290.000,140.400 290.000 C 140.180 290.000,140.000 289.676,140.000 289.280 C 140.000 288.884,139.789 288.349,139.531 288.091 C 139.172 287.732,139.172 287.379,139.533 286.588 C 140.216 285.087,140.800 285.748,140.800 288.024 M146.443 287.901 C 146.870 288.898,147.130 289.803,147.020 289.914 C 146.610 290.323,145.600 289.069,145.600 288.151 C 145.600 287.628,145.420 287.200,145.200 287.200 C 144.980 287.200,144.800 287.573,144.800 288.029 C 144.800 288.794,143.961 290.000,143.429 290.000 C 143.029 290.000,143.178 289.317,143.997 287.408 C 144.921 285.252,145.344 285.337,146.443 287.901 M152.292 286.300 C 151.944 286.685,151.586 287.720,151.497 288.600 L 151.334 290.200 151.267 288.487 C 151.224 287.382,150.987 286.693,150.600 286.545 C 149.503 286.124,149.980 285.600,151.462 285.600 C 152.829 285.600,152.883 285.646,152.292 286.300 M191.902 286.599 C 192.008 287.152,191.871 287.874,191.598 288.202 C 191.009 288.912,191.627 289.013,192.320 288.320 C 192.959 287.681,192.928 286.605,192.255 286.045 C 191.813 285.679,191.746 285.785,191.902 286.599 M197.092 286.300 C 196.744 286.685,196.386 287.720,196.297 288.600 L 196.134 290.200 196.067 288.487 C 196.024 287.382,195.787 286.693,195.400 286.545 C 194.303 286.124,194.780 285.600,196.262 285.600 C 197.629 285.600,197.683 285.646,197.092 286.300 M208.000 288.024 C 208.000 289.111,207.820 290.000,207.600 290.000 C 207.380 290.000,207.200 289.676,207.200 289.280 C 207.200 288.884,206.989 288.349,206.731 288.091 C 206.372 287.732,206.372 287.379,206.733 286.588 C 207.416 285.087,208.000 285.748,208.000 288.024 M239.942 286.130 C 240.233 286.481,240.269 287.261,240.050 288.430 C 239.804 289.741,239.640 290.019,239.416 289.500 C 239.048 288.646,237.600 288.566,237.600 289.400 C 237.600 289.730,237.420 290.000,237.200 290.000 C 236.759 290.000,236.640 286.294,237.067 285.867 C 237.533 285.401,239.485 285.580,239.942 286.130 M156.000 288.000 C 156.000 289.100,155.820 290.000,155.600 290.000 C 155.380 290.000,155.200 289.100,155.200 288.000 C 155.200 286.900,155.380 286.000,155.600 286.000 C 155.820 286.000,156.000 286.900,156.000 288.000 M200.800 288.000 C 200.800 289.100,200.620 290.000,200.400 290.000 C 200.180 290.000,200.000 289.100,200.000 288.000 C 200.000 286.900,200.180 286.000,200.400 286.000 C 200.620 286.000,200.800 286.900,200.800 288.000 M211.200 288.000 C 211.200 289.100,211.020 290.000,210.800 290.000 C 210.580 290.000,210.400 289.100,210.400 288.000 C 210.400 286.900,210.580 286.000,210.800 286.000 C 211.020 286.000,211.200 286.900,211.200 288.000 M265.600 288.000 C 265.600 289.100,265.420 290.000,265.200 290.000 C 264.980 290.000,264.800 289.100,264.800 288.000 C 264.800 286.900,264.980 286.000,265.200 286.000 C 265.420 286.000,265.600 286.900,265.600 288.000 M129.885 286.648 C 129.728 286.805,129.600 287.119,129.600 287.347 C 129.600 287.594,129.793 287.567,130.080 287.280 C 130.946 286.414,132.000 286.706,132.000 287.813 C 132.000 289.131,130.872 289.579,130.106 288.565 C 129.541 287.817,129.531 287.817,129.670 288.600 C 129.853 289.636,131.919 289.708,132.554 288.700 C 133.369 287.409,130.969 285.564,129.885 286.648 M164.771 286.563 C 164.203 287.130,164.914 289.600,165.644 289.600 C 166.060 289.600,166.400 289.780,166.400 290.000 C 166.400 290.220,166.595 290.400,166.833 290.400 C 167.628 290.400,166.955 289.426,165.970 289.151 C 165.335 288.973,165.242 288.866,165.700 288.840 C 166.542 288.792,166.671 287.200,165.833 287.200 C 165.522 287.200,165.203 287.009,165.125 286.775 C 165.047 286.541,164.888 286.446,164.771 286.563 M182.833 286.961 C 181.756 288.258,183.300 290.237,184.700 289.354 C 185.858 288.624,185.625 286.626,184.366 286.480 C 183.797 286.414,183.107 286.630,182.833 286.961 M189.600 287.200 C 189.600 287.733,189.867 288.000,190.400 288.000 C 190.933 288.000,191.200 287.733,191.200 287.200 C 191.200 286.667,190.933 286.400,190.400 286.400 C 189.867 286.400,189.600 286.667,189.600 287.200 M219.400 286.800 C 219.264 287.020,219.358 287.200,219.608 287.200 C 219.906 287.200,219.972 287.615,219.800 288.400 C 219.559 289.497,219.627 289.600,220.592 289.600 C 221.194 289.600,221.541 289.772,221.400 290.000 C 221.264 290.220,221.433 290.400,221.776 290.400 C 222.767 290.400,222.499 289.640,221.412 289.367 C 220.539 289.148,220.493 289.050,221.016 288.527 C 221.683 287.860,221.453 287.200,220.553 287.200 C 220.223 287.200,220.064 287.020,220.200 286.800 C 220.336 286.580,220.267 286.400,220.047 286.400 C 219.827 286.400,219.536 286.580,219.400 286.800 M224.481 288.027 C 223.428 289.858,223.375 290.125,224.026 290.342 C 224.313 290.438,224.393 290.312,224.221 290.035 C 224.061 289.775,224.394 288.959,224.967 288.207 C 225.537 287.460,225.863 286.763,225.692 286.657 C 225.521 286.551,224.976 287.168,224.481 288.027 M237.676 287.100 C 237.750 287.485,238.166 287.800,238.600 287.800 C 239.034 287.800,239.450 287.485,239.524 287.100 C 239.625 286.576,239.393 286.400,238.600 286.400 C 237.807 286.400,237.575 286.576,237.676 287.100 M243.400 286.800 C 243.264 287.020,243.358 287.200,243.608 287.200 C 243.906 287.200,243.972 287.615,243.800 288.400 C 243.559 289.497,243.627 289.600,244.592 289.600 C 245.194 289.600,245.541 289.772,245.400 290.000 C 245.264 290.220,245.433 290.400,245.776 290.400 C 246.767 290.400,246.499 289.640,245.412 289.367 C 244.539 289.148,244.493 289.050,245.016 288.527 C 245.683 287.860,245.453 287.200,244.553 287.200 C 244.223 287.200,244.064 287.020,244.200 286.800 C 244.336 286.580,244.267 286.400,244.047 286.400 C 243.827 286.400,243.536 286.580,243.400 286.800 M279.400 286.800 C 279.264 287.020,279.358 287.200,279.608 287.200 C 279.906 287.200,279.972 287.615,279.800 288.400 C 279.559 289.497,279.627 289.600,280.592 289.600 C 281.194 289.600,281.541 289.772,281.400 290.000 C 281.264 290.220,281.433 290.400,281.776 290.400 C 282.767 290.400,282.499 289.640,281.412 289.367 C 280.539 289.148,280.493 289.050,281.016 288.527 C 281.683 287.860,281.453 287.200,280.553 287.200 C 280.223 287.200,280.064 287.020,280.200 286.800 C 280.336 286.580,280.267 286.400,280.047 286.400 C 279.827 286.400,279.536 286.580,279.400 286.800 M284.481 288.027 C 283.428 289.858,283.375 290.125,284.026 290.342 C 284.313 290.438,284.393 290.312,284.221 290.035 C 284.061 289.775,284.394 288.959,284.967 288.207 C 285.537 287.460,285.863 286.763,285.692 286.657 C 285.521 286.551,284.976 287.168,284.481 288.027 M185.128 287.902 C 185.287 289.021,184.169 289.541,183.354 288.726 C 182.554 287.925,183.072 286.725,184.151 286.879 C 184.679 286.954,185.048 287.341,185.128 287.902 M181.234 287.811 C 181.193 288.785,182.255 290.405,182.923 290.387 C 183.185 290.380,183.074 290.127,182.676 289.825 C 182.277 289.523,181.798 288.764,181.610 288.138 C 181.357 287.296,181.260 287.211,181.234 287.811 M139.200 288.551 C 139.200 289.529,138.053 290.203,137.746 289.405 C 137.592 289.003,137.715 288.573,138.042 288.366 C 138.840 287.861,139.200 287.918,139.200 288.551 M161.057 288.605 C 161.185 288.938,161.067 289.478,160.796 289.805 C 160.241 290.474,158.800 290.615,158.800 290.000 C 158.800 289.780,159.172 289.600,159.627 289.600 C 160.272 289.600,160.398 289.424,160.200 288.800 C 159.904 287.867,160.704 287.685,161.057 288.605 M206.400 288.551 C 206.400 289.529,205.253 290.203,204.946 289.405 C 204.792 289.003,204.915 288.573,205.242 288.366 C 206.040 287.861,206.400 287.918,206.400 288.551 M216.257 288.605 C 216.385 288.938,216.267 289.478,215.996 289.805 C 215.441 290.474,214.000 290.615,214.000 290.000 C 214.000 289.780,214.372 289.600,214.827 289.600 C 215.472 289.600,215.598 289.424,215.400 288.800 C 215.104 287.867,215.904 287.685,216.257 288.605 M257.057 288.605 C 257.185 288.938,257.067 289.478,256.796 289.805 C 256.241 290.474,254.800 290.615,254.800 290.000 C 254.800 289.780,255.172 289.600,255.627 289.600 C 256.272 289.600,256.398 289.424,256.200 288.800 C 255.904 287.867,256.704 287.685,257.057 288.605 M270.657 288.605 C 270.785 288.938,270.667 289.478,270.396 289.805 C 269.841 290.474,268.400 290.615,268.400 290.000 C 268.400 289.780,268.772 289.600,269.227 289.600 C 269.872 289.600,269.998 289.424,269.800 288.800 C 269.504 287.867,270.304 287.685,270.657 288.605 M132.602 289.598 C 132.203 290.039,132.062 290.400,132.289 290.400 C 132.792 290.400,133.790 289.257,133.521 288.988 C 133.415 288.882,133.002 289.156,132.602 289.598 M174.900 289.883 C 174.337 290.090,174.206 291.600,174.751 291.600 C 174.944 291.600,175.332 291.322,175.614 290.983 C 176.179 290.302,175.713 289.585,174.900 289.883 M230.100 289.883 C 229.537 290.090,229.406 291.600,229.951 291.600 C 230.144 291.600,230.532 291.322,230.814 290.983 C 231.379 290.302,230.913 289.585,230.100 289.883 " stroke="none" fill="#b6d379" fill-rule="evenodd"></path></g></svg>